999
dxfrw 0.6.3
  0
SECTION
  2
HEADER
  9
$ACADVER
  1
AC1021
  9
$DWGCODEPAGE
  3
ANSI_1252
  9
$INSBASE
 10
0
 20
0
 30
0
  9
$EXTMIN
 10
11.08033357969152
 20
24.47992972365038
 30
0
  9
$EXTMAX
 10
38.57038357969152
 20
59.66717972365037
 30
0
  9
$LIMMIN
 10
0
 20
0
  9
$LIMMAX
 10
420
 20
297
  9
$ORTHOMODE
 70
    0
  9
$REGENMODE
 70
    1
  9
$FILLMODE
 70
    1
  9
$QTEXTMODE
 70
    0
  9
$MIRRTEXT
 70
    0
  9
$LTSCALE
 40
1
  9
$ATTMODE
 70
    0
  9
$TEXTSIZE
 40
2.5
  9
$TRACEWID
 40
15.68
  9
$TEXTSTYLE
  7
STANDARD
  9
$CLAYER
  8
0
  9
$CELTYPE
  6
BYLAYER
  9
$CECOLOR
 62
  256
  9
$CELTSCALE
 40
1
  9
$DISPSILH
 70
    0
  9
$DIMSCALE
 40
2.5
  9
$DIMASZ
 40
2.5
  9
$DIMEXO
 40
0.625
  9
$DIMDLI
 40
3.75
  9
$DIMRND
 40
0
  9
$DIMDLE
 40
0
  9
$DIMEXE
 40
1.25
  9
$DIMTP
 40
0
  9
$DIMTM
 40
0
  9
$DIMTXT
 40
2.5
  9
$DIMCEN
 40
2.5
  9
$DIMTSZ
 40
0
  9
$DIMTOL
 70
    0
  9
$DIMLIM
 70
    0
  9
$DIMTIH
 70
    0
  9
$DIMTOH
 70
    0
  9
$DIMSE1
 70
    0
  9
$DIMSE2
 70
    0
  9
$DIMTAD
 70
    1
  9
$DIMZIN
 70
    8
  9
$DIMBLK
  1

  9
$DIMASO
 70
    1
  9
$DIMSHO
 70
    1
  9
$DIMPOST
  1

  9
$DIMAPOST
  1

  9
$DIMALT
 70
    0
  9
$DIMALTD
 70
    3
  9
$DIMALTF
 40
0.03937
  9
$DIMLFAC
 40
1
  9
$DIMTOFL
 70
    1
  9
$DIMTVP
 40
0
  9
$DIMTIX
 70
    0
  9
$DIMSOXD
 70
    0
  9
$DIMSAH
 70
    0
  9
$DIMBLK1
  1

  9
$DIMBLK2
  1

  9
$DIMSTYLE
  2
STANDARD
  9
$DIMCLRD
 70
    0
  9
$DIMCLRE
 70
    0
  9
$DIMCLRT
 70
    0
  9
$DIMTFAC
 40
1
  9
$DIMGAP
 40
0.625
  9
$DIMJUST
 70
    0
  9
$DIMSD1
 70
    0
  9
$DIMSD2
 70
    0
  9
$DIMTOLJ
 70
    0
  9
$DIMTZIN
 70
    8
  9
$DIMALTZ
 70
    0
  9
$DIMALTTZ
 70
    0
  9
$DIMUPT
 70
    0
  9
$DIMDEC
 70
    2
  9
$DIMTDEC
 70
    2
  9
$DIMALTU
 70
    2
  9
$DIMALTTD
 70
    3
  9
$DIMTXSTY
  7
STANDARD
  9
$DIMAUNIT
 70
    0
  9
$DIMADEC
 70
    0
  9
$DIMALTRND
 40
0
  9
$DIMAZIN
 70
    0
  9
$DIMDSEP
 70
   44
  9
$DIMATFIT
 70
    3
  9
$DIMFRAC
 70
    0
  9
$DIMLDRBLK
  1
STANDARD
  9
$DIMLUNIT
 70
    2
  9
$DIMLWD
 70
   -2
  9
$DIMLWE
 70
   -2
  9
$DIMTMOVE
 70
    0
  9
$DIMFXL
 40
1
  9
$DIMFXLON
 70
    0
  9
$DIMJOGANG
 40
0.7854
  9
$DIMTFILL
 70
    0
  9
$DIMTFILLCLR
 70
    0
  9
$DIMARCSYM
 70
    0
  9
$DIMLTYPE
  6

  9
$DIMLTEX1
  6

  9
$DIMLTEX2
  6

  9
$LUNITS
 70
    2
  9
$LUPREC
 70
    4
  9
$SKETCHINC
 40
1
  9
$FILLETRAD
 40
0
  9
$AUNITS
 70
    0
  9
$AUPREC
 70
    2
  9
$MENU
  1
.
  9
$ELEVATION
 40
0
  9
$PELEVATION
 40
0
  9
$THICKNESS
 40
0
  9
$LIMCHECK
 70
    0
  9
$CHAMFERA
 40
0
  9
$CHAMFERB
 40
0
  9
$CHAMFERC
 40
0
  9
$CHAMFERD
 40
0
  9
$SKPOLY
 70
    0
  9
$USRTIMER
 70
    1
  9
$ANGBASE
 50
0
  9
$ANGDIR
 70
    0
  9
$PDMODE
 70
   34
  9
$PDSIZE
 40
0
  9
$PLINEWID
 40
0
  9
$SPLFRAME
 70
    0
  9
$SPLINETYPE
 70
    2
  9
$SPLINESEGS
 70
    8
  9
$HANDSEED
  5
20000
  9
$SURFTAB1
 70
    6
  9
$SURFTAB2
 70
    6
  9
$SURFTYPE
 70
    6
  9
$SURFU
 70
    6
  9
$SURFV
 70
    6
  9
$UCSBASE
  2

  9
$UCSNAME
  2

  9
$UCSORG
 10
0
 20
0
 30
0
  9
$UCSXDIR
 10
1
 20
0
 30
0
  9
$UCSYDIR
 10
0
 20
1
 30
0
  9
$UCSORTHOREF
  2

  9
$UCSORTHOVIEW
 70
    0
  9
$UCSORGTOP
 10
0
 20
0
 30
0
  9
$UCSORGBOTTOM
 10
0
 20
0
 30
0
  9
$UCSORGLEFT
 10
0
 20
0
 30
0
  9
$UCSORGRIGHT
 10
0
 20
0
 30
0
  9
$UCSORGFRONT
 10
0
 20
0
 30
0
  9
$UCSORGBACK
 10
0
 20
0
 30
0
  9
$PUCSBASE
  2

  9
$PUCSNAME
  2

  9
$PUCSORG
 10
0
 20
0
 30
0
  9
$PUCSXDIR
 10
1
 20
0
 30
0
  9
$PUCSYDIR
 10
0
 20
1
 30
0
  9
$PUCSORTHOREF
  2

  9
$PUCSORTHOVIEW
 70
    0
  9
$PUCSORGTOP
 10
0
 20
0
 30
0
  9
$PUCSORGBOTTOM
 10
0
 20
0
 30
0
  9
$PUCSORGLEFT
 10
0
 20
0
 30
0
  9
$PUCSORGRIGHT
 10
0
 20
0
 30
0
  9
$PUCSORGFRONT
 10
0
 20
0
 30
0
  9
$PUCSORGBACK
 10
0
 20
0
 30
0
  9
$USERI1
 70
    0
  9
$USERI2
 70
    0
  9
$USERI3
 70
    0
  9
$USERI4
 70
    0
  9
$USERI5
 70
    0
  9
$USERR1
 40
0
  9
$USERR2
 40
0
  9
$USERR3
 40
0
  9
$USERR4
 40
0
  9
$USERR5
 40
0
  9
$WORLDVIEW
 70
    1
  9
$SHADEDGE
 70
    3
  9
$SHADEDIF
 70
   70
  9
$TILEMODE
 70
    1
  9
$MAXACTVP
 70
   64
  9
$PINSBASE
 10
0
 20
0
 30
0
  9
$PLIMCHECK
 70
    0
  9
$PEXTMIN
 10
0
 20
0
 30
0
  9
$PEXTMAX
 10
0
 20
0
 30
0
  9
$GRIDMODE
 70
    1
  9
$SNAPSTYLE
 70
    0
  9
$PLIMMIN
 10
0
 20
0
  9
$PLIMMAX
 10
210
 20
297
  9
$UNITMODE
 70
    0
  9
$VISRETAIN
 70
    1
  9
$PLINEGEN
 70
    0
  9
$PSLTSCALE
 70
    1
  9
$TREEDEPTH
 70
 3020
  9
$CMLSTYLE
  2
Standard
  9
$CMLJUST
 70
    0
  9
$CMLSCALE
 40
20
  9
$PROXYGRAPHICS
 70
    1
  9
$MEASUREMENT
 70
    1
  9
$CELWEIGHT
370
   -1
  9
$ENDCAPS
280
    0
  9
$JOINSTYLE
280
    0
  9
$LWDISPLAY
290
    0
  9
$INSUNITS
 70
    4
  9
$HYPERLINKBASE
  1

  9
$STYLESHEET
  1

  9
$XEDIT
290
    1
  9
$CEPSNTYPE
380
    0
  9
$PSTYLEMODE
290
    1
  9
$EXTNAMES
290
    1
  9
$PSVPSCALE
 40
1
  9
$OLESTARTUP
290
    0
  9
$SORTENTS
280
  127
  9
$INDEXCTL
280
    0
  9
$HIDETEXT
280
    1
  9
$XCLIPFRAME
290
    0
  9
$HALOGAP
280
    0
  9
$OBSCOLOR
 70
  257
  9
$OBSLTYPE
280
    0
  9
$INTERSECTIONDISPLAY
280
    0
  9
$INTERSECTIONCOLOR
 70
  257
  9
$DIMASSOC
280
    1
  9
$PROJECTNAME
  1

  9
$CAMERADISPLAY
290
    0
  9
$LENSLENGTH
 40
50
  9
$CAMERAHEIGHT
 40
0
  9
$STEPSPERSEC
 40
2
  9
$STEPSIZE
 40
50
  9
$3DDWFPREC
 40
2
  9
$PSOLWIDTH
 40
5
  9
$PSOLHEIGHT
 40
80
  9
$LOFTANG1
 40
1.570796326794897
  9
$LOFTANG2
 40
1.570796326794897
  9
$LOFTMAG1
 40
0
  9
$LOFTMAG2
 40
0
  9
$LOFTPARAM
 70
    7
  9
$LOFTNORMALS
280
    1
  9
$LATITUDE
 40
1
  9
$LONGITUDE
 40
1
  9
$NORTHDIRECTION
 40
0
  9
$TIMEZONE
 70
-8000
  9
$LIGHTGLYPHDISPLAY
280
    1
  9
$TILEMODELIGHTSYNCH
280
    1
  9
$SOLIDHIST
280
    1
  9
$SHOWHIST
280
    1
  9
$DWFFRAME
280
    2
  9
$DGNFRAME
280
    0
  9
$REALWORLDSCALE
290
    1
  9
$INTERFERECOLOR
 62
    1
  9
$CSHADOW
280
    0
  9
$SHADOWPLANELOCATION
 40
0
  0
ENDSEC
  0
SECTION
  2
CLASSES
  0
ENDSEC
  0
SECTION
  2
TABLES
  0
TABLE
  2
VPORT
  5
8
330
0
100
AcDbSymbolTable
 70
    1
  0
VPORT
  5
31
330
2
100
AcDbSymbolTableRecord
100
AcDbViewportTableRecord
  2
*ACTIVE
 70
    0
 10
0
 20
0
 11
1
 21
1
 12
30.05389154884318
 22
30.05389154884318
 13
0
 23
0
 14
10
 24
10
 15
10
 25
10
 16
0
 26
0
 36
1
 17
0
 27
0
 37
0
 40
36.09180655526992
 41
1.954887218045113
 42
50
 43
0
 44
0
 50
0
 51
0
 71
    0
 72
  100
 73
    1
 74
    3
 75
    0
 76
    1
 77
    0
 78
    0
281
    0
 65
    1
110
0
120
0
130
0
111
1
121
0
131
0
112
0
122
1
132
0
 79
    0
146
0
348
10020
 60
    7
 61
    5
292
1
282
    1
141
0
142
0
 63
  250
421
3358443
  0
ENDTAB
  0
TABLE
  2
LTYPE
  5
5
330
0
100
AcDbSymbolTable
 70
    4
  0
LTYPE
  5
14
330
5
100
AcDbSymbolTableRecord
100
AcDbLinetypeTableRecord
  2
ByBlock
 70
    0
  3

 72
   65
 73
    0
 40
0
  0
LTYPE
  5
15
330
5
100
AcDbSymbolTableRecord
100
AcDbLinetypeTableRecord
  2
ByLayer
 70
    0
  3

 72
   65
 73
    0
 40
0
  0
LTYPE
  5
16
330
5
100
AcDbSymbolTableRecord
100
AcDbLinetypeTableRecord
  2
Continuous
 70
    0
  3
Solid line
 72
   65
 73
    0
 40
0
  0
LTYPE
  5
32
330
5
100
AcDbSymbolTableRecord
100
AcDbLinetypeTableRecord
  2
DOT
 70
    0
  3
Dot . . . . . . . . . . . . . . . . . . . . . .
 72
   65
 73
    2
 40
6.35
 49
0
 74
    0
 49
-6.35
 74
    0
  0
LTYPE
  5
33
330
5
100
AcDbSymbolTableRecord
100
AcDbLinetypeTableRecord
  2
DOTTINY
 70
    0
  3
Dot (.15x) .....................................
 72
   65
 73
    2
 40
0.9525
 49
0
 74
    0
 49
-0.9525
 74
    0
  0
LTYPE
  5
34
330
5
100
AcDbSymbolTableRecord
100
AcDbLinetypeTableRecord
  2
DOT2
 70
    0
  3
Dot (.5x) .....................................
 72
   65
 73
    2
 40
3.175
 49
0
 74
    0
 49
-3.175
 74
    0
  0
LTYPE
  5
35
330
5
100
AcDbSymbolTableRecord
100
AcDbLinetypeTableRecord
  2
DOTX2
 70
    0
  3
Dot (2x) .  .  .  .  .  .  .  .  .  .  .  .  .
 72
   65
 73
    2
 40
12.7
 49
0
 74
    0
 49
-12.7
 74
    0
  0
LTYPE
  5
36
330
5
100
AcDbSymbolTableRecord
100
AcDbLinetypeTableRecord
  2
DASHED
 70
    0
  3
Dashed _ _ _ _ _ _ _ _ _ _ _ _ _ _ _ _ _
 72
   65
 73
    2
 40
19.05
 49
12.7
 74
    0
 49
-6.35
 74
    0
  0
LTYPE
  5
37
330
5
100
AcDbSymbolTableRecord
100
AcDbLinetypeTableRecord
  2
DASHEDTINY
 70
    0
  3
Dashed (.15x) _ _ _ _ _ _ _ _ _ _ _ _ _ _ _ _ _
 72
   65
 73
    2
 40
2.8575
 49
1.905
 74
    0
 49
-0.9525
 74
    0
  0
LTYPE
  5
38
330
5
100
AcDbSymbolTableRecord
100
AcDbLinetypeTableRecord
  2
DASHED2
 70
    0
  3
Dashed (.5x) _ _ _ _ _ _ _ _ _ _ _ _ _ _ _ _ _
 72
   65
 73
    2
 40
9.524999999999999
 49
6.35
 74
    0
 49
-3.175
 74
    0
  0
LTYPE
  5
39
330
5
100
AcDbSymbolTableRecord
100
AcDbLinetypeTableRecord
  2
DASHEDX2
 70
    0
  3
Dashed (2x) ____  ____  ____  ____  ____  ___
 72
   65
 73
    2
 40
38.09999999999999
 49
25.4
 74
    0
 49
-12.7
 74
    0
  0
LTYPE
  5
3A
330
5
100
AcDbSymbolTableRecord
100
AcDbLinetypeTableRecord
  2
DASHDOT
 70
    0
  3
Dash dot __ . __ . __ . __ . __ . __ . __ . __
 72
   65
 73
    4
 40
25.4
 49
12.7
 74
    0
 49
-6.35
 74
    0
 49
0
 74
    0
 49
-6.35
 74
    0
  0
LTYPE
  5
3B
330
5
100
AcDbSymbolTableRecord
100
AcDbLinetypeTableRecord
  2
DASHDOTTINY
 70
    0
  3
Dash dot (.15x) _._._._._._._._._._._._._._._.
 72
   65
 73
    4
 40
3.81
 49
1.905
 74
    0
 49
-0.9525
 74
    0
 49
0
 74
    0
 49
-0.9525
 74
    0
  0
LTYPE
  5
3C
330
5
100
AcDbSymbolTableRecord
100
AcDbLinetypeTableRecord
  2
DASHDOT2
 70
    0
  3
Dash dot (.5x) _._._._._._._._._._._._._._._.
 72
   65
 73
    4
 40
12.7
 49
6.35
 74
    0
 49
-3.175
 74
    0
 49
0
 74
    0
 49
-3.175
 74
    0
  0
LTYPE
  5
3D
330
5
100
AcDbSymbolTableRecord
100
AcDbLinetypeTableRecord
  2
DASHDOTX2
 70
    0
  3
Dash dot (2x) ____  .  ____  .  ____  .  ___
 72
   65
 73
    4
 40
50.8
 49
25.4
 74
    0
 49
-12.7
 74
    0
 49
0
 74
    0
 49
-12.7
 74
    0
  0
LTYPE
  5
3E
330
5
100
AcDbSymbolTableRecord
100
AcDbLinetypeTableRecord
  2
DIVIDE
 70
    0
  3
Divide ____ . . ____ . . ____ . . ____ . . ____
 72
   65
 73
    6
 40
31.75
 49
12.7
 74
    0
 49
-6.35
 74
    0
 49
0
 74
    0
 49
-6.35
 74
    0
 49
0
 74
    0
 49
-6.35
 74
    0
  0
LTYPE
  5
3F
330
5
100
AcDbSymbolTableRecord
100
AcDbLinetypeTableRecord
  2
DIVIDETINY
 70
    0
  3
Divide (.15x) __..__..__..__..__..__..__..__.._
 72
   65
 73
    6
 40
4.7625
 49
1.905
 74
    0
 49
-0.9525
 74
    0
 49
0
 74
    0
 49
-0.9525
 74
    0
 49
0
 74
    0
 49
-0.9525
 74
    0
  0
LTYPE
  5
40
330
5
100
AcDbSymbolTableRecord
100
AcDbLinetypeTableRecord
  2
DIVIDE2
 70
    0
  3
Divide (.5x) __..__..__..__..__..__..__..__.._
 72
   65
 73
    6
 40
15.875
 49
6.35
 74
    0
 49
-3.175
 74
    0
 49
0
 74
    0
 49
-3.175
 74
    0
 49
0
 74
    0
 49
-3.175
 74
    0
  0
LTYPE
  5
41
330
5
100
AcDbSymbolTableRecord
100
AcDbLinetypeTableRecord
  2
DIVIDEX2
 70
    0
  3
Divide (2x) ________  .  .  ________  .  .  _
 72
   65
 73
    6
 40
63.5
 49
25.4
 74
    0
 49
-12.7
 74
    0
 49
0
 74
    0
 49
-12.7
 74
    0
 49
0
 74
    0
 49
-12.7
 74
    0
  0
LTYPE
  5
42
330
5
100
AcDbSymbolTableRecord
100
AcDbLinetypeTableRecord
  2
BORDER
 70
    0
  3
Border __ __ . __ __ . __ __ . __ __ . __ __ .
 72
   65
 73
    6
 40
44.45
 49
12.7
 74
    0
 49
-6.35
 74
    0
 49
12.7
 74
    0
 49
-6.35
 74
    0
 49
0
 74
    0
 49
-6.35
 74
    0
  0
LTYPE
  5
43
330
5
100
AcDbSymbolTableRecord
100
AcDbLinetypeTableRecord
  2
BORDERTINY
 70
    0
  3
Border (.15x) __.__.__.__.__.__.__.__.__.__.__.
 72
   65
 73
    6
 40
6.6675
 49
1.905
 74
    0
 49
-0.9525
 74
    0
 49
1.905
 74
    0
 49
-0.9525
 74
    0
 49
0
 74
    0
 49
-0.9525
 74
    0
  0
LTYPE
  5
44
330
5
100
AcDbSymbolTableRecord
100
AcDbLinetypeTableRecord
  2
BORDER2
 70
    0
  3
Border (.5x) __.__.__.__.__.__.__.__.__.__.__.
 72
   65
 73
    6
 40
22.225
 49
6.35
 74
    0
 49
-3.175
 74
    0
 49
6.35
 74
    0
 49
-3.175
 74
    0
 49
0
 74
    0
 49
-3.175
 74
    0
  0
LTYPE
  5
45
330
5
100
AcDbSymbolTableRecord
100
AcDbLinetypeTableRecord
  2
BORDERX2
 70
    0
  3
Border (2x) ____  ____  .  ____  ____  .  ___
 72
   65
 73
    6
 40
88.89999999999999
 49
25.4
 74
    0
 49
-12.7
 74
    0
 49
25.4
 74
    0
 49
-12.7
 74
    0
 49
0
 74
    0
 49
-12.7
 74
    0
  0
LTYPE
  5
46
330
5
100
AcDbSymbolTableRecord
100
AcDbLinetypeTableRecord
  2
CENTER
 70
    0
  3
Center ____ _ ____ _ ____ _ ____ _ ____ _ ____
 72
   65
 73
    4
 40
50.8
 49
31.75
 74
    0
 49
-6.35
 74
    0
 49
6.35
 74
    0
 49
-6.35
 74
    0
  0
LTYPE
  5
47
330
5
100
AcDbSymbolTableRecord
100
AcDbLinetypeTableRecord
  2
CENTERTINY
 70
    0
  3
Center (.15x) ___ _ ___ _ ___ _ ___ _ ___ _ ___
 72
   65
 73
    4
 40
7.619999999999999
 49
4.7625
 74
    0
 49
-0.9525
 74
    0
 49
0.9525
 74
    0
 49
-0.9525
 74
    0
  0
LTYPE
  5
48
330
5
100
AcDbSymbolTableRecord
100
AcDbLinetypeTableRecord
  2
CENTER2
 70
    0
  3
Center (.5x) ___ _ ___ _ ___ _ ___ _ ___ _ ___
 72
   65
 73
    4
 40
28.575
 49
19.05
 74
    0
 49
-3.175
 74
    0
 49
3.175
 74
    0
 49
-3.175
 74
    0
  0
LTYPE
  5
49
330
5
100
AcDbSymbolTableRecord
100
AcDbLinetypeTableRecord
  2
CENTERX2
 70
    0
  3
Center (2x) ________  __  ________  __  _____
 72
   65
 73
    4
 40
101.6
 49
63.5
 74
    0
 49
-12.7
 74
    0
 49
12.7
 74
    0
 49
-12.7
 74
    0
  0
ENDTAB
  0
TABLE
  2
LAYER
  5
2
330
0
100
AcDbSymbolTable
 70
    1
  0
LAYER
  5
10
330
2
100
AcDbSymbolTableRecord
100
AcDbLayerTableRecord
  2
0
 70
    0
 62
    7
  6
CONTINUOUS
370
    0
390
F
  0
LAYER
  5
4A
330
2
100
AcDbSymbolTableRecord
100
AcDbLayerTableRecord
  2
SILK_TOP
 70
    0
 62
   85
  6
CONTINUOUS
370
   -3
390
F
  0
ENDTAB
  0
TABLE
  2
STYLE
  5
3
330
0
100
AcDbSymbolTable
 70
    3
  0
STYLE
  5
4B
330
2
100
AcDbSymbolTableRecord
100
AcDbTextStyleTableRecord
  2
Standard
 70
    0
 40
0
 41
1
 50
0
 71
    0
 42
1
  3
txt
  4

  0
ENDTAB
  0
TABLE
  2
VIEW
  5
6
330
0
100
AcDbSymbolTable
 70
    0
  0
ENDTAB
  0
TABLE
  2
UCS
  5
7
330
0
100
AcDbSymbolTable
 70
    0
  0
ENDTAB
  0
TABLE
  2
APPID
  5
9
330
0
100
AcDbSymbolTable
 70
    1
  0
APPID
  5
12
330
9
100
AcDbSymbolTableRecord
100
AcDbRegAppTableRecord
  2
ACAD
 70
    0
  0
APPID
  5
4C
330
9
100
AcDbSymbolTableRecord
100
AcDbRegAppTableRecord
  2
LibreCad
 70
    0
  0
ENDTAB
  0
TABLE
  2
DIMSTYLE
  5
A
330
0
100
AcDbSymbolTable
 70
    1
100
AcDbDimStyleTable
 71
    1
  0
DIMSTYLE
105
4D
330
A
100
AcDbSymbolTableRecord
100
AcDbDimStyleTableRecord
  2
Standard
 70
    0
 40
2.5
 41
2.5
 42
0.625
 43
0.38
 44
1.25
 45
0
 46
0
 47
0
 48
0
 49
1
140
2.5
141
0.09
142
0
143
25.4
144
1
145
0
146
1
147
0.625
148
0
 71
    0
 72
    0
 73
    0
 74
    1
 75
    0
 76
    0
 77
    0
 78
    8
 79
    0
170
    0
171
    2
172
    0
173
    0
174
    0
175
    0
176
    0
177
    0
178
    0
179
    0
271
    2
272
    4
273
    2
274
    2
275
    0
276
    0
277
    2
278
   44
279
    0
280
    0
281
    0
282
    0
283
    1
284
    0
285
    0
286
    0
288
    0
289
    3
340
STANDARD
341

371
   -2
372
   -2
  0
ENDTAB
  0
TABLE
  2
BLOCK_RECORD
  5
1
330
0
100
AcDbSymbolTable
 70
    2
  0
BLOCK_RECORD
  5
1F
330
1
100
AcDbSymbolTableRecord
100
AcDbBlockTableRecord
  2
*Model_Space
 70
    0
280
    1
281
    0
  0
BLOCK_RECORD
  5
1E
330
1
100
AcDbSymbolTableRecord
100
AcDbBlockTableRecord
  2
*Paper_Space
 70
    0
280
    1
281
    0
  0
ENDTAB
  0
ENDSEC
  0
SECTION
  2
BLOCKS
  0
BLOCK
  5
20
330
1F
100
AcDbEntity
  8
0
100
AcDbBlockBegin
  2
*Model_Space
 70
    0
 10
0
 20
0
 30
0
  3
*Model_Space
  1

  0
ENDBLK
  5
21
330
1F
100
AcDbEntity
  8
0
100
AcDbBlockEnd
  0
BLOCK
  5
1C
330
1B
100
AcDbEntity
  8
0
100
AcDbBlockBegin
  2
*Paper_Space
 70
    0
 10
0
 20
0
 30
0
  3
*Paper_Space
  1

  0
ENDBLK
  5
1D
330
1F
100
AcDbEntity
  8
0
100
AcDbBlockEnd
  0
ENDSEC
  0
SECTION
  2
ENTITIES
  0
LWPOLYLINE
  5
4E
100
AcDbEntity
  8
SILK_TOP
  6
ByLayer
 62
  256
370
   -1
100
AcDbPolyline
 90
  718
 70
    1
 43
0
 10
18.25708357969152
 20
59.54922972365038
 10
18.16188357969151
 20
59.51667972365037
 10
18.10938357969152
 20
59.50302972365038
 10
18.05583357969152
 20
59.49147972365039
 10
18.00228357969151
 20
59.48202972365038
 10
17.94978357969152
 20
59.47537972365037
 10
17.90043357969152
 20
59.47117972365038
 10
17.85458357969151
 20
59.47012972365038
 10
17.81398357969152
 20
59.47222972365036
 10
17.37928357969152
 20
59.49847972365036
 10
17.20358357969151
 20
59.50127972365038
 10
17.05273357969152
 20
59.49707972365038
 10
16.92358357969152
 20
59.48587972365037
 10
16.81368357969152
 20
59.46697972365038
 10
16.72058357969152
 20
59.44107972365038
 10
16.64148357969151
 20
59.40747972365039
 10
16.57358357969152
 20
59.36617972365038
 10
16.49028357969152
 20
59.30947972365038
 10
16.45073357969152
 20
59.28847972365038
 10
16.41223357969151
 20
59.27202972365038
 10
16.37478357969151
 20
59.26012972365039
 10
16.33838357969152
 20
59.25277972365036
 10
16.30233357969151
 20
59.24927972365037
 10
16.26663357969152
 20
59.24962972365039
 10
16.23093357969151
 20
59.25382972365038
 10
16.04718357969152
 20
59.26327972365038
 10
15.94218357969152
 20
59.25312972365037
 10
15.83473357969152
 20
59.23422972365037
 10
15.72903357969151
 20
59.20832972365038
 10
15.62998357969152
 20
59.17612972365038
 10
15.54143357969152
 20
59.13867972365038
 10
15.46863357969152
 20
59.09737972365038
 10
15.41578357969152
 20
59.05292972365037
 10
15.35978357969152
 20
59.00532972365038
 10
15.32618357969151
 20
58.98712972365038
 10
15.28768357969152
 20
58.97207972365037
 10
15.24288357969152
 20
58.96052972365037
 10
15.19038357969151
 20
58.95142972365039
 10
15.12983357969152
 20
58.94547972365039
 10
15.05983357969151
 20
58.94197972365037
 10
14.97863357969151
 20
58.94092972365038
 10
14.68638357969151
 20
58.92062972365038
 10
14.54288357969152
 20
58.89647972365037
 10
14.40323357969151
 20
58.86357972365037
 10
14.26988357969151
 20
58.82262972365039
 10
14.14493357969151
 20
58.77467972365039
 10
14.02978357969151
 20
58.71972972365037
 10
13.92723357969152
 20
58.65882972365037
 10
13.83868357969152
 20
58.59232972365039
 10
13.74453357969151
 20
58.52022972365038
 10
13.69623357969152
 20
58.49152972365036
 10
13.64513357969152
 20
58.46702972365037
 10
13.59123357969152
 20
58.44637972365038
 10
13.53243357969152
 20
58.42922972365038
 10
13.46838357969152
 20
58.41452972365037
 10
13.39733357969152
 20
58.40192972365037
 10
13.31893357969152
 20
58.39142972365038
 10
12.87478357969151
 20
58.29027972365037
 10
12.70643357969151
 20
58.20207972365038
 10
12.57378357969152
 20
58.08902972365039
 10
12.47683357969152
 20
57.95077972365038
 10
12.41523357969151
 20
57.78732972365036
 10
12.38968357969152
 20
57.59832972365038
 10
12.39948357969151
 20
57.38447972365038
 10
12.44463357969152
 20
57.14507972365039
 10
12.47088357969152
 20
57.01592972365038
 10
12.47648357969152
 20
56.96272972365037
 10
12.47683357969152
 20
56.91372972365038
 10
12.47158357969152
 20
56.86682972365037
 10
12.46003357969152
 20
56.81957972365036
 10
12.44218357969151
 20
56.76917972365038
 10
12.41733357969152
 20
56.71282972365038
 10
12.38548357969152
 20
56.64877972365036
 10
12.30183357969152
 20
56.45662972365038
 10
12.27943357969152
 20
56.37052972365038
 10
12.27068357969152
 20
56.28722972365038
 10
12.27523357969152
 20
56.20357972365039
 10
12.29273357969151
 20
56.11607972365037
 10
12.32423357969152
 20
56.02122972365038
 10
12.36868357969152
 20
55.91657972365039
 10
12.42713357969152
 20
55.79827972365038
 10
12.49888357969151
 20
55.65267972365038
 10
12.52443357969152
 20
55.59247972365037
 10
12.54333357969152
 20
55.53857972365037
 10
12.55558357969152
 20
55.48922972365037
 10
12.56188357969152
 20
55.44302972365038
 10
12.56188357969152
 20
55.39857972365037
 10
12.55628357969152
 20
55.35412972365036
 10
12.54508357969152
 20
55.30792972365037
 10
12.52758357969152
 20
55.14377972365037
 10
12.53458357969152
 20
55.05417972365038
 10
12.55243357969152
 20
54.96037972365038
 10
12.58043357969152
 20
54.86307972365037
 10
12.61858357969151
 20
54.76227972365037
 10
12.66688357969151
 20
54.65902972365036
 10
12.72533357969152
 20
54.55332972365036
 10
12.79323357969152
 20
54.44552972365037
 10
12.86568357969152
 20
54.32547972365039
 10
12.89438357969152
 20
54.26912972365038
 10
12.91818357969152
 20
54.21382972365039
 10
12.93743357969152
 20
54.15922972365037
 10
12.95213357969151
 20
54.10427972365038
 10
12.96228357969152
 20
54.04862972365038
 10
12.96858357969152
 20
53.99122972365038
 10
12.97033357969152
 20
53.93172972365038
 10
12.98888357969152
 20
53.72417972365037
 10
13.01233357969152
 20
53.62617972365038
 10
13.04488357969151
 20
53.53202972365038
 10
13.08723357969152
 20
53.44032972365038
 10
13.13938357969152
 20
53.35107972365037
 10
13.20098357969152
 20
53.26392972365039
 10
13.27273357969152
 20
53.17782972365039
 10
13.35428357969151
 20
53.09277972365038
 10
13.43758357969151
 20
53.00492972365036
 10
13.47083357969152
 20
52.96257972365038
 10
13.49883357969151
 20
52.92127972365037
 10
13.52158357969152
 20
52.88102972365039
 10
13.53908357969151
 20
52.84147972365037
 10
13.55133357969152
 20
52.80262972365037
 10
13.55868357969152
 20
52.76447972365037
 10
13.56113357969152
 20
52.72667972365038
 10
13.60138357969152
 20
52.49637972365038
 10
13.65073357969152
 20
52.37807972365037
 10
13.71828357969152
 20
52.25907972365037
 10
13.80403357969152
 20
52.14007972365039
 10
13.90693357969151
 20
52.02177972365038
 10
14.02593357969152
 20
51.90522972365037
 10
14.16103357969152
 20
51.79147972365038
 10
14.31118357969152
 20
51.68122972365038
 10
14.37873357969151
 20
51.62977972365038
 10
14.40918357969152
 20
51.60212972365038
 10
14.43648357969152
 20
51.57412972365037
 10
14.45993357969152
 20
51.54647972365038
 10
14.47918357969152
 20
51.52022972365037
 10
14.49388357969151
 20
51.49607972365037
 10
14.50298357969152
 20
51.47437972365037
 10
14.50613357969152
 20
51.45687972365039
 10
14.54498357969151
 20
51.31092972365039
 10
14.58838357969152
 20
51.22167972365038
 10
14.64403357969152
 20
51.12717972365039
 10
14.70843357969152
 20
51.03232972365036
 10
14.77843357969152
 20
50.94167972365037
 10
14.85088357969152
 20
50.86012972365039
 10
14.92263357969152
 20
50.79187972365038
 10
14.99053357969151
 20
50.74182972365037
 10
15.07138357969152
 20
50.69667972365038
 10
15.11723357969151
 20
50.67357972365038
 10
15.16553357969152
 20
50.65047972365038
 10
15.21453357969151
 20
50.62842972365037
 10
15.26353357969152
 20
50.60777972365037
 10
15.31148357969152
 20
50.58887972365038
 10
15.35663357969152
 20
50.57242972365039
 10
15.39828357969152
 20
50.55877972365037
 10
15.49628357969151
 20
50.51957972365038
 10
15.53758357969152
 20
50.49612972365037
 10
15.57433357969152
 20
50.46882972365037
 10
15.60793357969152
 20
50.43662972365037
 10
15.63873357969151
 20
50.39917972365038
 10
15.66778357969151
 20
50.35542972365037
 10
15.69543357969152
 20
50.30467972365037
 10
15.72308357969152
 20
50.24587972365038
 10
15.82878357969152
 20
50.07157972365038
 10
15.89878357969152
 20
49.99317972365037
 10
15.97928357969151
 20
49.92072972365038
 10
16.07028357969152
 20
49.85492972365037
 10
16.17143357969152
 20
49.79542972365037
 10
16.28238357969152
 20
49.74327972365037
 10
16.40278357969152
 20
49.69847972365038
 10
16.53228357969151
 20
49.66102972365038
 10
16.81578357969152
 20
49.58997972365039
 10
16.38458357969152
 20
49.31837972365038
 10
15.60093357969151
 20
48.74227972365038
 10
15.26423357969152
 20
48.43392972365038
 10
14.96288357969151
 20
48.11087972365037
 10
14.69618357969151
 20
47.77207972365038
 10
14.46273357969152
 20
47.41682972365038
 10
14.26253357969152
 20
47.04372972365037
 10
14.09418357969151
 20
46.65207972365038
 10
13.95698357969152
 20
46.24082972365038
 10
13.86003357969152
 20
45.85442972365037
 10
13.81663357969151
 20
45.63952972365038
 10
13.77778357969152
 20
45.41727972365037
 10
13.74453357969151
 20
45.19362972365038
 10
13.71723357969152
 20
44.97382972365038
 10
13.69658357969151
 20
44.76312972365038
 10
13.68363357969152
 20
44.56747972365038
 10
13.67908357969152
 20
44.39212972365037
 10
13.65353357969152
 20
44.16742972365037
 10
13.62273357969152
 20
44.05787972365038
 10
13.58178357969151
 20
43.95217972365038
 10
13.53103357969151
 20
43.85312972365038
 10
13.47188357969151
 20
43.76142972365038
 10
13.40538357969151
 20
43.67987972365038
 10
13.33223357969152
 20
43.60987972365038
 10
13.25383357969151
 20
43.55317972365037
 10
13.03368357969152
 20
43.38587972365038
 10
12.89753357969152
 20
43.26267972365038
 10
12.75228357969151
 20
43.12127972365037
 10
12.60388357969152
 20
42.96867972365038
 10
12.45863357969151
 20
42.81047972365038
 10
12.32248357969151
 20
42.65297972365038
 10
12.20138357969152
 20
42.50282972365038
 10
12.10198357969152
 20
42.36597972365038
 10
11.68968357969151
 20
41.67577972365038
 10
11.52483357969151
 20
41.32997972365037
 10
11.38658357969152
 20
40.98102972365038
 10
11.27493357969152
 20
40.62752972365038
 10
11.18883357969152
 20
40.26737972365038
 10
11.12828357969152
 20
39.89882972365038
 10
11.09223357969152
 20
39.52012972365038
 10
11.08033357969152
 20
39.12882972365038
 10
11.13353357969152
 20
38.37597972365038
 10
11.20003357969152
 20
38.01092972365038
 10
11.29278357969151
 20
37.65357972365037
 10
11.41178357969152
 20
37.30427972365038
 10
11.55703357969151
 20
36.96267972365038
 10
11.72853357969152
 20
36.62912972365037
 10
11.92593357969152
 20
36.30362972365037
 10
12.14923357969151
 20
35.98652972365038
 10
12.28153357969152
 20
35.79892972365038
 10
12.33578357969151
 20
35.71282972365039
 10
12.38303357969152
 20
35.63022972365037
 10
12.42363357969151
 20
35.55007972365038
 10
12.45898357969152
 20
35.47062972365038
 10
12.48978357969152
 20
35.39082972365038
 10
12.51603357969152
 20
35.30927972365038
 10
12.53913357969152
 20
35.22457972365038
 10
12.58603357969152
 20
35.04012972365037
 10
12.62208357969152
 20
34.91272972365039
 10
12.66478357969152
 20
34.76712972365037
 10
12.71308357969152
 20
34.60682972365038
 10
12.76558357969151
 20
34.43567972365037
 10
12.82053357969152
 20
34.25752972365038
 10
12.87758357969151
 20
34.07622972365038
 10
12.93498357969152
 20
33.89562972365038
 10
13.05258357969152
 20
33.52847972365038
 10
13.10928357969151
 20
33.34472972365038
 10
13.16283357969152
 20
33.16587972365038
 10
13.21253357969152
 20
32.99612972365037
 10
13.25698357969152
 20
32.83967972365038
 10
13.29513357969152
 20
32.70037972365038
 10
13.32593357969151
 20
32.58242972365038
 10
13.34833357969152
 20
32.48967972365037
 10
13.52613357969152
 20
31.87542972365037
 10
13.64688357969152
 20
31.57267972365038
 10
13.78793357969152
 20
31.27412972365038
 10
13.94893357969152
 20
30.98047972365038
 10
14.12918357969152
 20
30.69347972365038
 10
14.32763357969152
 20
30.41347972365038
 10
14.54428357969152
 20
30.14152972365037
 10
14.77808357969152
 20
29.87867972365038
 10
15.20368357969151
 20
29.46672972365038
 10
15.42908357969152
 20
29.27422972365038
 10
15.65798357969152
 20
29.09467972365038
 10
15.88653357969151
 20
28.93052972365037
 10
16.11158357969152
 20
28.78387972365038
 10
16.32893357969152
 20
28.65822972365038
 10
16.53543357969152
 20
28.55567972365038
 10
16.72723357969151
 20
28.47867972365038
 10
16.82068357969152
 20
28.43317972365038
 10
16.88718357969151
 20
28.39537972365038
 10
16.96383357969151
 20
28.34952972365037
 10
17.04888357969152
 20
28.29632972365038
 10
17.14023357969151
 20
28.23717972365037
 10
17.23543357969152
 20
28.17347972365037
 10
17.33273357969151
 20
28.10592972365038
 10
17.43003357969152
 20
28.03592972365038
 10
18.05233357969151
 20
27.61032972365038
 10
18.34808357969152
 20
27.42237972365038
 10
18.63648357969151
 20
27.24947972365037
 10
18.91893357969152
 20
27.09022972365037
 10
19.19788357969152
 20
26.94427972365038
 10
19.47438357969151
 20
26.80952972365038
 10
19.75088357969152
 20
26.68562972365038
 10
20.02913357969151
 20
26.57082972365038
 10
20.18663357969151
 20
26.49767972365037
 10
20.27028357969152
 20
26.45112972365038
 10
20.35603357969152
 20
26.39897972365038
 10
20.44388357969152
 20
26.34122972365038
 10
20.53243357969152
 20
26.27892972365037
 10
20.62133357969152
 20
26.21242972365038
 10
20.70953357969151
 20
26.14207972365038
 10
20.79703357969152
 20
26.06892972365038
 10
21.17293357969152
 20
25.75112972365037
 10
21.34233357969151
 20
25.61847972365038
 10
21.50543357969152
 20
25.49947972365037
 10
21.66608357969152
 20
25.39097972365038
 10
21.82883357969152
 20
25.29052972365038
 10
21.99823357969152
 20
25.19462972365038
 10
22.17848357969152
 20
25.10047972365038
 10
22.37413357969152
 20
25.00562972365038
 10
22.89773357969152
 20
24.78197972365038
 10
23.14868357969152
 20
24.69587972365038
 10
23.39823357969151
 20
24.62587972365039
 10
23.65093357969152
 20
24.57057972365038
 10
23.91133357969152
 20
24.52962972365038
 10
24.18398357969152
 20
24.50127972365038
 10
24.47343357969152
 20
24.48517972365038
 10
24.78423357969152
 20
24.47992972365038
 10
25.80833357969152
 20
24.55097972365039
 10
26.28538357969151
 20
24.64512972365038
 10
26.74493357969152
 20
24.78057972365038
 10
27.19048357969152
 20
24.95942972365038
 10
27.62658357969151
 20
25.18307972365038
 10
28.05743357969152
 20
25.45327972365038
 10
28.48688357969152
 20
25.77142972365037
 10
28.91913357969151
 20
26.13962972365038
 10
29.05878357969152
 20
26.25372972365038
 10
29.13473357969152
 20
26.30937972365038
 10
29.21243357969151
 20
26.36292972365038
 10
29.29188357969151
 20
26.41332972365039
 10
29.37098357969152
 20
26.46057972365037
 10
29.44938357969152
 20
26.50292972365038
 10
29.52533357969152
 20
26.54002972365037
 10
29.59848357969152
 20
26.57082972365038
 10
30.06363357969152
 20
26.76997972365037
 10
30.31948357969152
 20
26.89387972365038
 10
30.58408357969151
 20
27.03037972365038
 10
30.85323357969152
 20
27.17702972365038
 10
31.12203357969151
 20
27.33102972365038
 10
31.38558357969152
 20
27.48992972365037
 10
31.63933357969152
 20
27.65092972365039
 10
31.87838357969152
 20
27.81122972365038
 10
32.14718357969151
 20
27.99217972365037
 10
32.29208357969152
 20
28.08562972365038
 10
32.43873357969152
 20
28.17767972365037
 10
32.58433357969151
 20
28.26657972365038
 10
32.72503357969152
 20
28.35057972365038
 10
32.85768357969152
 20
28.42687972365038
 10
32.97808357969151
 20
28.49407972365038
 10
33.08343357969152
 20
28.54972972365038
 10
33.47718357969152
 20
28.76427972365038
 10
33.66163357969151
 20
28.87802972365039
 10
33.84013357969152
 20
28.99702972365038
 10
34.01373357969151
 20
29.12302972365037
 10
34.18488357969152
 20
29.25707972365039
 10
34.35428357969152
 20
29.40057972365037
 10
34.52438357969152
 20
29.55422972365038
 10
34.69588357969152
 20
29.71942972365038
 10
35.23453357969152
 20
30.31547972365038
 10
35.46378357969152
 20
30.62382972365038
 10
35.66818357969152
 20
30.94267972365039
 10
35.84913357969151
 20
31.27412972365038
 10
36.00733357969152
 20
31.62027972365038
 10
36.14488357969152
 20
31.98427972365038
 10
36.26248357969152
 20
32.36752972365039
 10
36.36188357969151
 20
32.77317972365039
 10
36.41543357969151
 20
32.99717972365038
 10
36.45183357969152
 20
33.13262972365038
 10
36.49278357969152
 20
33.27892972365037
 10
36.53723357969152
 20
33.43222972365038
 10
36.58483357969151
 20
33.58902972365038
 10
36.63418357969151
 20
33.74582972365038
 10
36.68423357969152
 20
33.89842972365037
 10
36.73393357969152
 20
34.04297972365038
 10
36.83193357969151
 20
34.33382972365037
 10
36.87883357969152
 20
34.47977972365037
 10
36.92328357969152
 20
34.62187972365038
 10
36.96423357969152
 20
34.75732972365037
 10
37.00028357969152
 20
34.88227972365038
 10
37.03073357969152
 20
34.99427972365038
 10
37.05453357969152
 20
35.08947972365038
 10
37.07063357969152
 20
35.16542972365038
 10
37.11263357969152
 20
35.32712972365037
 10
37.13923357969151
 20
35.40342972365038
 10
37.16968357969152
 20
35.47727972365037
 10
37.20468357969151
 20
35.55042972365037
 10
37.24423357969152
 20
35.62252972365038
 10
37.28903357969151
 20
35.69532972365037
 10
37.33943357969152
 20
35.76917972365037
 10
37.39543357969151
 20
35.84477972365038
 10
38.01773357969152
 20
36.83877972365038
 10
38.24278357969152
 20
37.35572972365037
 10
38.41008357969152
 20
37.88317972365037
 10
38.51928357969152
 20
38.42007972365037
 10
38.57038357969152
 20
38.96502972365037
 10
38.56268357969152
 20
39.51557972365038
 10
38.49583357969151
 20
40.07102972365037
 10
38.37018357969152
 20
40.62927972365038
 10
38.11048357969152
 20
41.33172972365038
 10
37.93688357969152
 20
41.68522972365038
 10
37.74018357969152
 20
42.03102972365038
 10
37.52493357969151
 20
42.36247972365038
 10
37.29498357969151
 20
42.67257972365038
 10
37.05523357969151
 20
42.95467972365038
 10
36.80953357969151
 20
43.20107972365038
 10
36.56278357969152
 20
43.40547972365037
 10
36.30168357969151
 20
43.62492972365038
 10
36.20123357969151
 20
43.73342972365038
 10
36.11933357969152
 20
43.84437972365038
 10
36.05458357969152
 20
43.95917972365038
 10
36.00663357969152
 20
44.07992972365038
 10
35.97338357969152
 20
44.20872972365038
 10
35.95448357969152
 20
44.34767972365038
 10
35.94818357969152
 20
44.49852972365038
 10
35.91633357969152
 20
45.04872972365037
 10
35.87993357969152
 20
45.33047972365038
 10
35.83058357969152
 20
45.61292972365037
 10
35.76898357969151
 20
45.89327972365038
 10
35.69583357969152
 20
46.16907972365037
 10
35.61148357969152
 20
46.43682972365038
 10
35.51628357969152
 20
46.69407972365038
 10
35.41093357969152
 20
46.93802972365037
 10
35.09033357969152
 20
47.53267972365038
 10
34.90588357969151
 20
47.80672972365038
 10
34.70323357969151
 20
48.06712972365038
 10
34.48133357969152
 20
48.31632972365038
 10
34.23808357969151
 20
48.55607972365038
 10
33.97243357969151
 20
48.78777972365037
 10
33.68263357969151
 20
49.01387972365038
 10
33.36693357969152
 20
49.23577972365038
 10
33.19543357969152
 20
49.34987972365039
 10
33.11913357969152
 20
49.40237972365037
 10
33.05053357969152
 20
49.44997972365037
 10
32.99173357969152
 20
49.49232972365037
 10
32.94343357969152
 20
49.52802972365038
 10
32.90738357969152
 20
49.55602972365038
 10
32.88463357969152
 20
49.57492972365038
 10
32.87658357969151
 20
49.58437972365037
 10
32.89233357969152
 20
49.59522972365038
 10
32.91088357969152
 20
49.60292972365038
 10
32.93608357969151
 20
49.61202972365038
 10
32.96653357969151
 20
49.62182972365038
 10
33.00188357969152
 20
49.63232972365037
 10
33.04143357969151
 20
49.64352972365039
 10
33.08448357969151
 20
49.65507972365038
 10
33.13068357969152
 20
49.66697972365038
 10
33.36623357969152
 20
49.75062972365038
 10
33.47368357969152
 20
49.80417972365038
 10
33.57238357969153
 20
49.86472972365038
 10
33.66268357969151
 20
49.93157972365039
 10
33.74283357969151
 20
50.00437972365037
 10
33.81248357969152
 20
50.08242972365038
 10
33.87058357969151
 20
50.16502972365038
 10
33.91643357969151
 20
50.25182972365039
 10
33.97138357969151
 20
50.36312972365037
 10
34.00078357969152
 20
50.40687972365038
 10
34.03298357969152
 20
50.44467972365038
 10
34.06938357969152
 20
50.47722972365038
 10
34.11138357969152
 20
50.50592972365038
 10
34.16003357969152
 20
50.53217972365037
 10
34.21673357969151
 20
50.55737972365039
 10
34.28253357969152
 20
50.58257972365038
 10
34.52368357969152
 20
50.68197972365037
 10
34.62763357969151
 20
50.74182972365037
 10
34.72178357969152
 20
50.80937972365038
 10
34.80648357969152
 20
50.88462972365038
 10
34.88243357969152
 20
50.96827972365038
 10
34.94998357969152
 20
51.06067972365039
 10
35.00948357969152
 20
51.16252972365039
 10
35.06233357969152
 20
51.27347972365039
 10
35.12673357969152
 20
51.40752972365038
 10
35.16278357969152
 20
51.46912972365037
 10
35.20128357969152
 20
51.52652972365038
 10
35.24258357969152
 20
51.58077972365037
 10
35.28668357969152
 20
51.63152972365039
 10
35.33323357969152
 20
51.67877972365039
 10
35.38258357969152
 20
51.72287972365039
 10
35.43438357969151
 20
51.76382972365037
 10
35.65558357969152
 20
51.94897972365038
 10
35.74868357969151
 20
52.04382972365038
 10
35.82953357969152
 20
52.14007972365039
 10
35.89848357969151
 20
52.23702972365037
 10
35.95518357969151
 20
52.33432972365037
 10
35.99893357969151
 20
52.43197972365037
 10
36.03043357969151
 20
52.52927972365038
 10
36.04863357969152
 20
52.62622972365038
 10
36.07138357969152
 20
52.74697972365038
 10
36.08853357969151
 20
52.80227972365039
 10
36.11058357969151
 20
52.85512972365036
 10
36.13753357969151
 20
52.90692972365038
 10
36.17043357969151
 20
52.95837972365037
 10
36.20928357969152
 20
53.01087972365036
 10
36.25548357969151
 20
53.06512972365037
 10
36.30868357969151
 20
53.12252972365037
 10
36.45743357969151
 20
53.29612972365038
 10
36.51448357969151
 20
53.37942972365036
 10
36.56103357969152
 20
53.46237972365039
 10
36.59743357969151
 20
53.54672972365037
 10
36.62438357969152
 20
53.63352972365037
 10
36.64293357969152
 20
53.72487972365037
 10
36.65378357969151
 20
53.82147972365037
 10
36.65728357969152
 20
53.92577972365038
 10
36.66533357969151
 20
54.03672972365038
 10
36.67653357969152
 20
54.09097972365039
 10
36.69228357969151
 20
54.14557972365039
 10
36.71328357969151
 20
54.20122972365037
 10
36.74023357969151
 20
54.25862972365039
 10
36.77313357969151
 20
54.31917972365038
 10
36.81233357969152
 20
54.38322972365036
 10
36.85783357969152
 20
54.45147972365037
 10
36.98383357969152
 20
54.66602972365038
 10
37.03178357969152
 20
54.77312972365037
 10
37.06888357969152
 20
54.87847972365037
 10
37.09478357969152
 20
54.98067972365038
 10
37.10948357969151
 20
55.07902972365038
 10
37.11263357969152
 20
55.17212972365037
 10
37.10353357969151
 20
55.25857972365037
 10
37.08253357969151
 20
55.33767972365037
 10
37.06398357969152
 20
55.40942972365039
 10
37.06223357969152
 20
55.44442972365037
 10
37.06538357969151
 20
55.48012972365036
 10
37.07413357969152
 20
55.51757972365037
 10
37.08883357969152
 20
55.55747972365037
 10
37.10983357969153
 20
55.60157972365037
 10
37.13713357969152
 20
55.64987972365039
 10
37.17108357969152
 20
55.70377972365038
 10
37.28483357969152
 20
55.91587972365039
 10
37.32088357969152
 20
56.02157972365039
 10
37.34293357969151
 20
56.12727972365036
 10
37.35133357969152
 20
56.23297972365037
 10
37.34608357969152
 20
56.33902972365039
 10
37.32683357969152
 20
56.44577972365037
 10
37.29428357969152
 20
56.55287972365036
 10
37.24773357969151
 20
56.66067972365036
 10
37.19068357969152
 20
56.79332972365037
 10
37.17178357969151
 20
56.84722972365036
 10
37.15953357969152
 20
56.89517972365037
 10
37.15288357969152
 20
56.93962972365037
 10
37.15253357969152
 20
56.98232972365037
 10
37.15743357969151
 20
57.0253797236504
 10
37.16758357969151
 20
57.07122972365036
 10
37.18298357969152
 20
57.1212797236504
 10
37.23163357969151
 20
57.31937972365037
 10
37.24248357969151
 20
57.42227972365038
 10
37.24493357969152
 20
57.52517972365037
 10
37.23828357969152
 20
57.62667972365038
 10
37.22358357969152
 20
57.72432972365038
 10
37.20048357969152
 20
57.81672972365037
 10
37.16898357969152
 20
57.90177972365038
 10
37.12978357969151
 20
57.97807972365039
 10
37.01498357969152
 20
58.12297972365036
 10
36.94428357969151
 20
58.18352972365038
 10
36.86448357969152
 20
58.23637972365037
 10
36.77488357969152
 20
58.28187972365036
 10
36.67513357969152
 20
58.31967972365039
 10
36.56418357969152
 20
58.35047972365038
 10
36.44238357969151
 20
58.37427972365037
 10
36.30868357969151
 20
58.39142972365038
 10
36.16693357969152
 20
58.41102972365037
 10
36.10463357969152
 20
58.42397972365038
 10
36.04723357969151
 20
58.43902972365039
 10
35.99508357969152
 20
58.45687972365038
 10
35.94748357969152
 20
58.47717972365038
 10
35.90443357969152
 20
58.50062972365036
 10
35.86558357969151
 20
58.52687972365037
 10
35.83023357969152
 20
58.55697972365037
 10
35.64963357969152
 20
58.69732972365039
 10
35.55443357969152
 20
58.75297972365036
 10
35.45363357969151
 20
58.79952972365037
 10
35.34513357969152
 20
58.83802972365039
 10
35.22753357969152
 20
58.86882972365038
 10
35.09908357969152
 20
58.89297972365038
 10
34.95803357969152
 20
58.91082972365038
 10
34.80228357969152
 20
58.92307972365036
 10
34.59193357969152
 20
58.94092972365038
 10
34.50688357969152
 20
58.95212972365039
 10
34.43338357969152
 20
58.96507972365036
 10
34.37038357969151
 20
58.98047972365038
 10
34.31613357969152
 20
58.99832972365037
 10
34.26958357969151
 20
59.01897972365036
 10
34.22933357969152
 20
59.04312972365037
 10
34.19398357969152
 20
59.07077972365037
 10
34.06378357969152
 20
59.15652972365038
 10
33.98188357969151
 20
59.19187972365039
 10
33.89228357969151
 20
59.22162972365039
 10
33.79778357969152
 20
59.24472972365037
 10
33.70118357969152
 20
59.26047972365038
 10
33.60528357969152
 20
59.26887972365038
 10
33.51253357969151
 20
59.26887972365038
 10
33.42608357969151
 20
59.25977972365038
 10
33.34068357969151
 20
59.25137972365038
 10
33.30113357969152
 20
59.25277972365036
 10
33.26263357969151
 20
59.25837972365038
 10
33.22483357969151
 20
59.26817972365038
 10
33.18668357969151
 20
59.28252972365038
 10
33.14783357969151
 20
59.30142972365037
 10
33.10793357969151
 20
59.32522972365038
 10
33.06558357969152
 20
59.35427972365038
 10
32.88533357969152
 20
59.44737972365039
 10
32.77613357969151
 20
59.48097972365038
 10
32.65748357969152
 20
59.50512972365036
 10
32.53183357969151
 20
59.51982972365037
 10
32.40233357969151
 20
59.52507972365038
 10
32.27108357969152
 20
59.51982972365037
 10
32.14088357969151
 20
59.50442972365036
 10
32.01418357969151
 20
59.47817972365036
 10
31.87488357969151
 20
59.44667972365036
 10
31.81643357969151
 20
59.43967972365038
 10
31.76148357969151
 20
59.43932972365037
 10
31.70688357969152
 20
59.44527972365037
 10
31.64878357969152
 20
59.45787972365039
 10
31.58473357969152
 20
59.47712972365038
 10
31.51053357969152
 20
59.50372972365037
 10
31.42373357969152
 20
59.53732972365036
 10
31.11048357969152
 20
59.66717972365037
 10
30.73843357969151
 20
59.53137972365036
 10
30.55888357969152
 20
59.46907972365038
 10
30.47593357969151
 20
59.44667972365036
 10
30.39473357969152
 20
59.42917972365038
 10
30.31248357969152
 20
59.41622972365038
 10
30.22673357969151
 20
59.40747972365039
 10
30.13608357969151
 20
59.40257972365036
 10
30.03773357969152
 20
59.40082972365038
 10
29.92923357969152
 20
59.40152972365039
 10
29.71853357969152
 20
59.40397972365037
 10
29.63348357969151
 20
59.40047972365037
 10
29.55753357969152
 20
59.39242972365039
 10
29.48823357969152
 20
59.37982972365038
 10
29.42173357969152
 20
59.36127972365036
 10
29.35488357969152
 20
59.33642972365038
 10
29.28488357969152
 20
59.30492972365038
 10
29.20858357969152
 20
59.26572972365037
 10
29.06963357969152
 20
59.20167972365039
 10
29.00313357969151
 20
59.17752972365038
 10
28.93698357969152
 20
59.15792972365038
 10
28.86943357969152
 20
59.14252972365036
 10
28.79943357969152
 20
59.13132972365037
 10
28.72523357969152
 20
59.12362972365038
 10
28.64543357969151
 20
59.11942972365038
 10
28.55863357969152
 20
59.11802972365037
 10
28.29788357969151
 20
59.10192972365039
 10
28.18413357969152
 20
59.08022972365038
 10
28.07843357969152
 20
59.04872972365038
 10
27.97833357969152
 20
59.00567972365038
 10
27.88173357969152
 20
58.95072972365038
 10
27.78653357969151
 20
58.88282972365038
 10
27.68993357969152
 20
58.80127972365037
 10
27.59018357969152
 20
58.70432972365036
 10
27.47538357969152
 20
58.59372972365037
 10
27.42673357969151
 20
58.55382972365037
 10
27.38018357969152
 20
58.52337972365039
 10
27.33433357969152
 20
58.50062972365036
 10
27.28673357969152
 20
58.48487972365037
 10
27.23528357969153
 20
58.47472972365038
 10
27.17753357969152
 20
58.46982972365036
 10
27.11138357969152
 20
58.46807972365038
 10
26.92308357969151
 20
58.44112972365038
 10
26.82648357969151
 20
58.40577972365038
 10
26.72638357969152
 20
58.35432972365038
 10
26.62103357969151
 20
58.28537972365038
 10
26.50868357969151
 20
58.19787972365036
 10
26.38758357969152
 20
58.09077972365036
 10
26.25633357969152
 20
57.96267972365037
 10
26.11318357969152
 20
57.81252972365038
 10
25.79573357969152
 20
57.44012972365037
 10
25.65188357969152
 20
57.24482972365038
 10
25.51713357969152
 20
57.04217972365037
 10
25.39113357969152
 20
56.83077972365037
 10
25.27318357969152
 20
56.61027972365038
 10
25.16258357969152
 20
56.37892972365036
 10
25.05898357969152
 20
56.13637972365036
 10
24.96133357969152
 20
55.88087972365037
 10
24.82553357969152
 20
55.50882972365038
 10
24.66593357969152
 20
55.91657972365039
 10
24.38383357969152
 20
56.54832972365038
 10
24.22493357969152
 20
56.84442972365037
 10
24.05623357969152
 20
57.12512972365036
 10
23.87843357969152
 20
57.3879797236504
 10
23.69328357969152
 20
57.63087972365037
 10
23.50218357969152
 20
57.85172972365039
 10
23.30618357969152
 20
58.04912972365037
 10
23.10668357969152
 20
58.22027972365039
 10
22.95093357969152
 20
58.33472972365039
 10
22.88583357969151
 20
58.37637972365038
 10
22.82598357969152
 20
58.40857972365037
 10
22.76928357969152
 20
58.43272972365038
 10
22.71328357969152
 20
58.44987972365037
 10
22.65588357969152
 20
58.4607297236504
 10
22.59498357969152
 20
58.46667972365039
 10
22.52778357969152
 20
58.46807972365038
 10
22.39863357969152
 20
58.47437972365037
 10
22.34543357969152
 20
58.48347972365037
 10
22.29713357969151
 20
58.49852972365037
 10
22.25058357969152
 20
58.52092972365037
 10
22.20403357969152
 20
58.55137972365038
 10
22.15468357969151
 20
58.59127972365037
 10
22.09973357969152
 20
58.64202972365038
 10
22.03743357969152
 20
58.70432972365036
 10
21.84108357969151
 20
58.88282972365038
 10
21.74588357969152
 20
58.95072972365038
 10
21.64963357969152
 20
59.00567972365038
 10
21.55023357969151
 20
59.04872972365038
 10
21.44523357969151
 20
59.08022972365038
 10
21.33218357969152
 20
59.10192972365039
 10
21.20968357969152
 20
59.11417972365037
 10
21.07458357969151
 20
59.11802972365037
 10
20.90658357969151
 20
59.12362972365038
 10
20.83308357969152
 20
59.13167972365039
 10
20.76378357969152
 20
59.14322972365039
 10
20.69798357969152
 20
59.1589797236504
 10
20.63323357969152
 20
59.17927972365037
 10
20.56813357969151
 20
59.20447972365038
 10
20.50128357969151
 20
59.23527972365038
 10
20.43093357969152
 20
59.27167972365037
 10
20.28533357969151
 20
59.34482972365036
 10
20.22198357969152
 20
59.36897972365037
 10
20.16073357969152
 20
59.38647972365039
 10
20.09773357969151
 20
59.39732972365037
 10
20.02913357969151
 20
59.40222972365038
 10
19.95213357969151
 20
59.40222972365038
 10
19.86253357969152
 20
59.39802972365037
 10
19.75753357969151
 20
59.38962972365039
 10
19.57238357969151
 20
59.37737972365039
 10
19.49433357969152
 20
59.37667972365038
 10
19.42363357969151
 20
59.38052972365039
 10
19.35818357969152
 20
59.38822972365038
 10
19.29588357969151
 20
59.40047972365037
 10
19.23463357969151
 20
59.41762972365036
 10
19.17268357969152
 20
59.43967972365038
 10
19.10758357969152
 20
59.46662972365038
 10
18.87063357969151
 20
59.55832972365036
 10
18.76913357969152
 20
59.58772972365037
 10
18.67568357969152
 20
59.60662972365037
 10
18.58853357969151
 20
59.61502972365038
 10
18.50523357969152
 20
59.61292972365038
 10
18.42368357969151
 20
59.60137972365037
 10
18.34178357969152
 20
59.58002972365036
  0
LWPOLYLINE
  5
4F
100
AcDbEntity
  8
SILK_TOP
  6
ByLayer
 62
  256
370
   -1
100
AcDbPolyline
 90
   40
 70
    1
 43
0
 10
25.96548357969152
 20
29.22907972365038
 10
26.83838357969152
 20
29.08172972365038
 10
27.22828357969152
 20
28.98337972365038
 10
27.58108357969152
 20
28.87102972365038
 10
27.89188357969152
 20
28.74677972365038
 10
28.15648357969152
 20
28.61202972365038
 10
28.36963357969152
 20
28.46922972365038
 10
28.52678357969152
 20
28.31977972365038
 10
28.62373357969152
 20
28.16577972365038
 10
28.54183357969151
 20
27.59562972365038
 10
28.31958357969152
 20
27.26697972365038
 10
28.00108357969152
 20
26.92922972365038
 10
27.60488357969152
 20
26.59882972365038
 10
27.15023357969152
 20
26.29047972365039
 10
26.65463357969152
 20
26.02027972365038
 10
26.13768357969152
 20
25.80327972365038
 10
25.61723357969151
 20
25.65522972365037
 10
24.84618357969152
 20
25.56772972365038
 10
24.45768357969152
 20
25.57892972365038
 10
24.06883357969152
 20
25.62582972365038
 10
23.68103357969152
 20
25.70842972365037
 10
23.29533357969152
 20
25.82637972365038
 10
22.91383357969152
 20
25.97932972365038
 10
22.53758357969152
 20
26.16657972365038
 10
22.16763357969152
 20
26.38777972365038
 10
21.70353357969152
 20
26.72517972365038
 10
21.50928357969152
 20
26.89352972365038
 10
21.34163357969151
 20
27.05977972365038
 10
21.20198357969151
 20
27.22252972365037
 10
21.09103357969151
 20
27.38072972365038
 10
21.01053357969151
 20
27.53227972365038
 10
20.96153357969152
 20
27.67647972365037
 10
20.94473357969151
 20
27.81122972365038
 10
21.32588357969151
 20
28.37752972365038
 10
21.75953357969152
 20
28.63057972365038
 10
22.31708357969152
 20
28.85282972365038
 10
22.97018357969152
 20
29.03657972365038
 10
23.68978357969151
 20
29.17377972365038
 10
24.44823357969152
 20
29.25707972365039
 10
25.21613357969152
 20
29.27807972365039
  0
LWPOLYLINE
  5
50
100
AcDbEntity
  8
SILK_TOP
  6
ByLayer
 62
  256
370
   -1
100
AcDbPolyline
 90
   56
 70
    1
 43
0
 10
16.47908357969151
 20
35.72647972365038
 10
17.33343357969152
 20
35.32537972365038
 10
17.74608357969151
 20
35.05307972365038
 10
18.14228357969152
 20
34.73982972365037
 10
18.51608357969151
 20
34.39122972365038
 10
18.86258357969152
 20
34.01182972365038
 10
19.17548357969152
 20
33.60757972365037
 10
19.45023357969151
 20
33.18302972365037
 10
19.68053357969152
 20
32.74377972365038
 10
19.87478357969151
 20
32.27932972365038
 10
19.95003357969152
 20
32.06022972365038
 10
20.01198357969152
 20
31.84567972365038
 10
20.06098357969152
 20
31.63322972365038
 10
20.09843357969152
 20
31.41867972365038
 10
20.12468357969151
 20
31.19957972365038
 10
20.14078357969152
 20
30.97277972365038
 10
20.14743357969152
 20
30.73512972365038
 10
20.13658357969152
 20
30.33542972365038
 10
20.12048357969151
 20
30.17897972365037
 10
20.09528357969151
 20
30.04457972365038
 10
20.05923357969152
 20
29.92627972365038
 10
20.01093357969151
 20
29.81847972365038
 10
19.94828357969152
 20
29.71662972365038
 10
19.87023357969152
 20
29.61442972365039
 10
19.77503357969152
 20
29.50662972365037
 10
19.48418357969152
 20
29.31797972365038
 10
19.28853357969152
 20
29.25182972365038
 10
19.06663357969151
 20
29.20492972365038
 10
18.82408357969152
 20
29.17832972365038
 10
18.56683357969152
 20
29.17272972365038
 10
18.30013357969151
 20
29.18882972365038
 10
18.02958357969152
 20
29.22697972365038
 10
17.76078357969152
 20
29.28822972365037
 10
16.61313357969152
 20
29.79607972365038
 10
16.10353357969152
 20
30.16567972365038
 10
15.64468357969152
 20
30.60247972365038
 10
15.24323357969152
 20
31.09912972365038
 10
14.90548357969152
 20
31.64722972365038
 10
14.63738357969152
 20
32.24012972365038
 10
14.44488357969152
 20
32.87012972365038
 10
14.33498357969152
 20
33.52917972365037
 10
14.31468357969151
 20
34.06922972365038
 10
14.32973357969152
 20
34.32857972365038
 10
14.36088357969151
 20
34.57602972365037
 10
14.40708357969152
 20
34.80842972365038
 10
14.46798357969152
 20
35.02157972365038
 10
14.54253357969152
 20
35.21267972365038
 10
14.63038357969151
 20
35.37787972365038
 10
14.73083357969152
 20
35.51402972365037
 10
14.99683357969152
 20
35.70022972365037
 10
15.17358357969152
 20
35.76602972365038
 10
15.37133357969152
 20
35.81257972365037
 10
15.58483357969152
 20
35.83917972365037
 10
15.80778357969152
 20
35.84477972365038
 10
16.03528357969152
 20
35.82832972365038
 10
16.26103357969152
 20
35.78947972365038
  0
LWPOLYLINE
  5
51
100
AcDbEntity
  8
SILK_TOP
  6
ByLayer
 62
  256
370
   -1
100
AcDbPolyline
 90
   88
 70
    1
 43
0
 10
34.45963357969152
 20
36.24657972365038
 10
34.75118357969151
 20
35.94592972365037
 10
34.87438357969152
 20
35.73452972365038
 10
34.98183357969152
 20
35.48637972365037
 10
35.07178357969152
 20
35.20427972365037
 10
35.14353357969151
 20
34.89172972365039
 10
35.19603357969152
 20
34.55152972365038
 10
35.22858357969152
 20
34.18717972365038
 10
35.23943357969151
 20
33.80112972365038
 10
35.18483357969152
 20
32.95902972365037
 10
35.11273357969151
 20
32.57997972365037
 10
35.00808357969152
 20
32.22157972365038
 10
34.86808357969151
 20
31.87752972365038
 10
34.69063357969151
 20
31.54292972365038
 10
34.47363357969151
 20
31.21112972365038
 10
34.21428357969152
 20
30.87687972365038
 10
33.91048357969152
 20
30.53457972365038
 10
33.52128357969152
 20
30.15657972365037
 10
33.31828357969152
 20
29.98822972365038
 10
33.10863357969152
 20
29.83317972365038
 10
32.89268357969151
 20
29.69142972365038
 10
32.66938357969151
 20
29.56262972365038
 10
32.43908357969151
 20
29.44677972365038
 10
32.20108357969151
 20
29.34352972365038
 10
31.95538357969151
 20
29.25252972365038
 10
31.72018357969151
 20
29.17692972365039
 10
31.61448357969152
 20
29.14927972365037
 10
31.51088357969152
 20
29.12792972365038
 10
31.40483357969151
 20
29.11147972365038
 10
31.29178357969152
 20
29.09992972365038
 10
31.16788357969152
 20
29.09257972365038
 10
31.02823357969152
 20
29.08837972365038
 10
30.86828357969152
 20
29.08732972365038
 10
30.55223357969151
 20
29.08732972365038
 10
30.43463357969151
 20
29.09222972365038
 10
30.33488357969152
 20
29.10167972365037
 10
30.24773357969151
 20
29.11707972365037
 10
30.16618357969151
 20
29.13947972365039
 10
30.08393357969152
 20
29.16957972365038
 10
29.99538357969151
 20
29.20877972365038
 10
29.89388357969152
 20
29.25847972365038
 10
29.73183357969152
 20
29.34772972365039
 10
29.66638357969151
 20
29.39042972365039
 10
29.60898357969152
 20
29.43347972365038
 10
29.55823357969152
 20
29.47827972365038
 10
29.51273357969152
 20
29.52622972365038
 10
29.47073357969152
 20
29.57872972365038
 10
29.43083357969152
 20
29.63647972365038
 10
29.39163357969151
 20
29.70157972365038
 10
29.31813357969151
 20
29.84752972365037
 10
29.29293357969151
 20
29.91857972365038
 10
29.27403357969152
 20
29.99627972365037
 10
29.26073357969151
 20
30.08727972365038
 10
29.25198357969152
 20
30.19717972365038
 10
29.24708357969152
 20
30.33297972365038
 10
29.24463357969151
 20
30.50027972365038
 10
29.24393357969151
 20
30.70572972365038
 10
29.26633357969151
 20
31.24192972365038
 10
29.29398357969152
 20
31.48272972365038
 10
29.33493357969152
 20
31.71512972365037
 10
29.39163357969151
 20
31.94612972365038
 10
29.46583357969152
 20
32.18342972365038
 10
29.55893357969151
 20
32.43367972365038
 10
29.67338357969152
 20
32.70492972365038
 10
29.81093357969152
 20
33.00347972365038
 10
30.05173357969152
 20
33.47317972365038
 10
30.17423357969152
 20
33.68317972365038
 10
30.30268357969152
 20
33.88267972365038
 10
30.43988357969151
 20
34.07587972365038
 10
30.58968357969151
 20
34.26732972365038
 10
30.75523357969151
 20
34.46122972365038
 10
30.93968357969152
 20
34.66282972365038
 10
31.14583357969152
 20
34.87597972365038
 10
31.65648357969151
 20
35.35967972365037
 10
31.90043357969152
 20
35.56617972365038
 10
32.13773357969152
 20
35.75062972365038
 10
32.36943357969152
 20
35.91302972365038
 10
32.59693357969152
 20
36.05442972365039
 10
32.82058357969152
 20
36.17517972365037
 10
33.04143357969151
 20
36.27632972365038
 10
33.26053357969152
 20
36.35857972365038
 10
33.52583357969152
 20
36.41247972365038
 10
33.67143357969152
 20
36.42157972365037
 10
33.81948357969152
 20
36.41877972365038
 10
33.96648357969151
 20
36.40512972365038
 10
34.10823357969151
 20
36.38062972365038
 10
34.24053357969152
 20
36.34562972365038
 10
34.35883357969152
 20
36.30082972365038
  0
LWPOLYLINE
  5
52
100
AcDbEntity
  8
SILK_TOP
  6
ByLayer
 62
  256
370
   -1
100
AcDbPolyline
 90
   80
 70
    1
 43
0
 10
25.96548357969152
 20
37.69942972365038
 10
26.37078357969151
 20
37.56537972365038
 10
26.58568357969152
 20
37.47262972365037
 10
26.80233357969151
 20
37.36727972365038
 10
27.01478357969152
 20
37.25142972365038
 10
27.21778357969152
 20
37.12892972365038
 10
27.40678357969152
 20
37.00222972365037
 10
27.57583357969152
 20
36.87447972365037
 10
27.72003357969152
 20
36.74847972365038
 10
28.15648357969152
 20
36.26757972365039
 10
28.33113357969152
 20
36.02012972365038
 10
28.47883357969152
 20
35.76567972365037
 10
28.59993357969152
 20
35.50177972365038
 10
28.69583357969152
 20
35.22632972365037
 10
28.76723357969152
 20
34.93722972365038
 10
28.81588357969152
 20
34.63202972365038
 10
28.84213357969152
 20
34.30897972365037
 10
28.82568357969152
 20
33.61492972365038
 10
28.77598357969152
 20
33.30202972365038
 10
28.69653357969152
 20
33.00697972365037
 10
28.58558357969152
 20
32.72522972365039
 10
28.44208357969152
 20
32.45292972365039
 10
28.26358357969152
 20
32.18587972365039
 10
28.04903357969152
 20
31.91987972365038
 10
27.79668357969152
 20
31.65072972365038
 10
27.45963357969152
 20
31.33432972365038
 10
27.29828357969151
 20
31.20377972365037
 10
27.13588357969152
 20
31.08827972365038
 10
26.96893357969152
 20
30.98467972365037
 10
26.79288357969152
 20
30.89087972365038
 10
26.60423357969152
 20
30.80407972365038
 10
26.39878357969152
 20
30.72147972365038
 10
26.17233357969151
 20
30.64062972365038
 10
25.95043357969152
 20
30.57272972365038
 10
25.84578357969152
 20
30.54892972365038
 10
25.73658357969152
 20
30.53072972365037
 10
25.61513357969152
 20
30.51742972365038
 10
25.47478357969152
 20
30.50832972365038
 10
25.30923357969152
 20
30.50272972365038
 10
25.11078357969151
 20
30.49992972365038
 10
24.87278357969152
 20
30.49887972365038
 10
24.41463357969152
 20
30.50482972365037
 10
24.24698357969152
 20
30.51112972365038
 10
24.10803357969152
 20
30.52127972365038
 10
23.98728357969152
 20
30.53737972365038
 10
23.87598357969152
 20
30.55977972365038
 10
23.76468357969152
 20
30.59057972365039
 10
23.64323357969152
 20
30.63082972365038
 10
23.50253357969152
 20
30.68227972365038
 10
23.10143357969152
 20
30.84922972365038
 10
22.91978357969152
 20
30.93882972365038
 10
22.74828357969152
 20
31.03402972365038
 10
22.58518357969152
 20
31.13552972365038
 10
22.42908357969152
 20
31.24437972365038
 10
22.27788357969152
 20
31.36197972365038
 10
22.13018357969152
 20
31.48937972365038
 10
21.98423357969152
 20
31.62727972365038
 10
21.57578357969152
 20
32.09627972365038
 10
21.41478357969152
 20
32.33287972365038
 10
21.28003357969152
 20
32.57507972365038
 10
21.17083357969151
 20
32.82637972365038
 10
21.08508357969151
 20
33.08957972365038
 10
21.02208357969151
 20
33.36817972365038
 10
20.97938357969151
 20
33.66532972365038
 10
20.95663357969152
 20
33.98417972365039
 10
20.98078357969151
 20
34.66912972365038
 10
21.03258357969151
 20
34.98447972365038
 10
21.11238357969151
 20
35.28442972365038
 10
21.22018357969152
 20
35.57037972365038
 10
21.35703357969152
 20
35.84442972365038
 10
21.52363357969151
 20
36.10832972365039
 10
21.72068357969151
 20
36.36382972365038
 10
21.94888357969152
 20
36.61267972365037
 10
22.69893357969152
 20
37.20592972365037
 10
23.12033357969152
 20
37.43132972365038
 10
23.56553357969152
 20
37.60737972365038
 10
24.02963357969152
 20
37.73302972365038
 10
24.50668357969152
 20
37.80617972365038
 10
24.99213357969152
 20
37.82612972365038
 10
25.48003357969152
 20
37.79112972365038
  0
LWPOLYLINE
  5
53
100
AcDbEntity
  8
SILK_TOP
  6
ByLayer
 62
  256
370
   -1
100
AcDbPolyline
 90
   48
 70
    1
 43
0
 10
14.81343357969152
 20
42.69672972365039
 10
14.99438357969152
 20
42.38732972365038
 10
15.06368357969152
 20
42.17312972365038
 10
15.11828357969151
 20
41.92287972365038
 10
15.15748357969152
 20
41.63902972365037
 10
15.18128357969152
 20
41.32402972365038
 10
15.18933357969152
 20
40.98137972365038
 10
15.18093357969152
 20
40.61282972365038
 10
15.15608357969152
 20
40.22187972365038
 10
14.96568357969151
 20
38.80612972365037
 10
14.82568357969152
 20
38.17122972365037
 10
14.66258357969152
 20
37.60072972365037
 10
14.48023357969151
 20
37.10722972365038
 10
14.28318357969151
 20
36.70227972365038
 10
14.07598357969152
 20
36.39777972365038
 10
13.86318357969152
 20
36.20667972365037
 10
13.64968357969152
 20
36.14017972365038
 10
13.34378357969151
 20
36.27597972365038
 10
13.17648357969151
 20
36.43382972365038
 10
13.00708357969152
 20
36.63997972365037
 10
12.84083357969152
 20
36.88672972365038
 10
12.68368357969152
 20
37.16567972365038
 10
12.54088357969152
 20
37.46842972365038
 10
12.41803357969152
 20
37.78692972365037
 10
12.32073357969152
 20
38.11312972365037
 10
12.23778357969152
 20
38.57232972365038
 10
12.21433357969152
 20
38.82257972365037
 10
12.20243357969152
 20
39.08017972365038
 10
12.20243357969152
 20
39.33987972365037
 10
12.21433357969152
 20
39.59677972365039
 10
12.23778357969152
 20
39.84527972365038
 10
12.27348357969152
 20
40.08117972365037
 10
12.32073357969152
 20
40.29852972365038
 10
12.55628357969152
 20
40.95407972365038
 10
12.71833357969152
 20
41.27257972365038
 10
12.90558357969152
 20
41.57847972365037
 10
13.11418357969152
 20
41.86652972365038
 10
13.34063357969152
 20
42.13217972365038
 10
13.58143357969151
 20
42.37052972365037
 10
13.83343357969152
 20
42.57597972365038
 10
14.09278357969152
 20
42.74397972365037
 10
14.30418357969151
 20
42.85247972365038
 10
14.38993357969151
 20
42.88152972365037
 10
14.46623357969152
 20
42.89342972365037
 10
14.53623357969152
 20
42.88852972365037
 10
14.60273357969152
 20
42.86647972365037
 10
14.66923357969151
 20
42.82727972365038
 10
14.73853357969152
 20
42.77057972365037
  0
LWPOLYLINE
  5
54
100
AcDbEntity
  8
SILK_TOP
  6
ByLayer
 62
  256
370
   -1
100
AcDbPolyline
 90
   56
 70
    1
 43
0
 10
35.21003357969151
 20
42.83252972365038
 10
35.62163357969152
 20
42.52732972365038
 10
35.80398357969152
 20
42.36807972365038
 10
35.97233357969152
 20
42.20322972365038
 10
36.12808357969152
 20
42.03067972365038
 10
36.27193357969151
 20
41.84972972365038
 10
36.40528357969151
 20
41.65932972365037
 10
36.52953357969152
 20
41.45772972365037
 10
36.64538357969151
 20
41.24352972365038
 10
36.92293357969151
 20
40.53477972365037
 10
37.01253357969151
 20
40.16307972365038
 10
37.06923357969152
 20
39.78297972365037
 10
37.09303357969151
 20
39.39657972365038
 10
37.08323357969152
 20
39.00632972365038
 10
37.04018357969151
 20
38.61467972365037
 10
36.96283357969152
 20
38.22337972365037
 10
36.85188357969152
 20
37.83522972365037
 10
36.63313357969152
 20
37.32387972365039
 10
36.49523357969152
 20
37.07502972365038
 10
36.34683357969152
 20
36.84192972365037
 10
36.19318357969152
 20
36.63262972365038
 10
36.04128357969152
 20
36.45552972365038
 10
35.89638357969152
 20
36.31867972365038
 10
35.76513357969151
 20
36.23047972365038
 10
35.65278357969151
 20
36.19932972365038
 10
35.41513357969152
 20
36.30117972365038
 10
35.28738357969151
 20
36.42192972365037
 10
35.15753357969152
 20
36.58362972365038
 10
35.02803357969151
 20
36.78172972365038
 10
34.90203357969152
 20
37.01202972365038
 10
34.78233357969151
 20
37.27032972365037
 10
34.67138357969151
 20
37.55207972365037
 10
34.57198357969152
 20
37.85307972365038
 10
34.37143357969151
 20
38.59962972365038
 10
34.29443357969152
 20
38.96432972365038
 10
34.23213357969151
 20
39.32832972365038
 10
34.18453357969151
 20
39.69407972365038
 10
34.15058357969152
 20
40.06542972365038
 10
34.13028357969151
 20
40.44517972365038
 10
34.12328357969152
 20
40.83682972365038
 10
34.12888357969152
 20
41.24352972365038
 10
34.14498357969152
 20
41.70762972365038
 10
34.15478357969152
 20
41.88122972365038
 10
34.16668357969152
 20
42.02402972365037
 10
34.18208357969152
 20
42.14302972365038
 10
34.20168357969151
 20
42.24417972365038
 10
34.22618357969152
 20
42.33447972365038
 10
34.25663357969152
 20
42.42022972365038
 10
34.29443357969152
 20
42.50772972365038
 10
34.45193357969151
 20
42.78877972365038
 10
34.53838357969152
 20
42.88327972365038
 10
34.63043357969152
 20
42.94802972365038
 10
34.72948357969151
 20
42.98302972365038
 10
34.83588357969151
 20
42.98862972365038
 10
34.95103357969152
 20
42.96517972365038
 10
35.07563357969151
 20
42.91302972365038
  0
LWPOLYLINE
  5
55
100
AcDbEntity
  8
SILK_TOP
  6
ByLayer
 62
  256
370
   -1
100
AcDbPolyline
 90
   64
 70
    1
 43
0
 10
21.90163357969152
 20
44.98257972365037
 10
22.39723357969152
 20
44.75787972365038
 10
22.62088357969152
 20
44.62137972365038
 10
22.82913357969152
 20
44.46877972365039
 10
23.02163357969152
 20
44.29937972365038
 10
23.19838357969152
 20
44.11317972365038
 10
23.36008357969152
 20
43.91052972365038
 10
23.50673357969152
 20
43.69037972365038
 10
23.63833357969152
 20
43.45272972365038
 10
23.79303357969152
 20
43.10202972365038
 10
23.85428357969152
 20
42.92632972365038
 10
23.90538357969152
 20
42.74817972365037
 10
23.94633357969152
 20
42.56547972365038
 10
23.97748357969152
 20
42.37647972365038
 10
23.99918357969151
 20
42.17907972365038
 10
24.01213357969151
 20
41.97152972365038
 10
24.01633357969152
 20
41.75172972365037
 10
23.94948357969152
 20
40.95407972365038
 10
23.86618357969152
 20
40.56977972365038
 10
23.75033357969151
 20
40.19632972365038
 10
23.60228357969152
 20
39.83407972365038
 10
23.42203357969152
 20
39.48372972365037
 10
23.21028357969152
 20
39.14667972365038
 10
22.96738357969152
 20
38.82362972365038
 10
22.69333357969152
 20
38.51457972365039
 10
22.08923357969152
 20
37.97102972365038
 10
21.77248357969152
 20
37.74947972365037
 10
21.44663357969152
 20
37.56152972365038
 10
21.11273357969151
 20
37.40752972365038
 10
20.77043357969151
 20
37.28747972365038
 10
20.42148357969151
 20
37.20137972365038
 10
20.06588357969152
 20
37.14957972365038
 10
19.70433357969151
 20
37.13242972365038
 10
19.10723357969152
 20
37.17302972365037
 10
18.83598357969151
 20
37.22482972365038
 10
18.58013357969152
 20
37.29867972365038
 10
18.33723357969151
 20
37.39562972365038
 10
18.10553357969151
 20
37.51672972365039
 10
17.88223357969151
 20
37.66197972365038
 10
17.66593357969151
 20
37.83312972365038
 10
17.45383357969152
 20
38.03017972365038
 10
16.91448357969152
 20
38.74662972365037
 10
16.72303357969152
 20
39.15367972365037
 10
16.58478357969151
 20
39.58732972365038
 10
16.50078357969152
 20
40.04302972365038
 10
16.47138357969152
 20
40.51587972365038
 10
16.49798357969152
 20
41.00202972365038
 10
16.58093357969152
 20
41.49587972365038
 10
16.72128357969152
 20
41.99392972365038
 10
17.20078357969152
 20
42.99457972365038
 10
17.52243357969152
 20
43.44572972365038
 10
17.89028357969151
 20
43.85697972365038
 10
18.29803357969151
 20
44.22237972365037
 10
18.73973357969152
 20
44.53702972365037
 10
19.20908357969152
 20
44.79462972365038
 10
19.70013357969152
 20
44.99027972365037
 10
20.20623357969152
 20
45.11872972365038
 10
20.56463357969152
 20
45.15617972365038
 10
20.76273357969151
 20
45.15967972365038
 10
20.96678357969152
 20
45.15302972365038
 10
21.17188357969152
 20
45.13657972365038
 10
21.37278357969151
 20
45.11102972365038
 10
21.56493357969152
 20
45.07672972365038
 10
21.74273357969152
 20
45.03402972365038
  0
LWPOLYLINE
  5
56
100
AcDbEntity
  8
SILK_TOP
  6
ByLayer
 62
  256
370
   -1
100
AcDbPolyline
 90
   48
 70
    1
 43
0
 10
29.61598357969152
 20
45.26642972365038
 10
30.71393357969152
 20
44.84187972365038
 10
31.20953357969152
 20
44.52407972365037
 10
31.66243357969152
 20
44.14397972365038
 10
32.06668357969151
 20
43.70822972365038
 10
32.41738357969152
 20
43.22242972365038
 10
32.70823357969152
 20
42.69287972365038
 10
32.93398357969152
 20
42.12587972365039
 10
33.08938357969151
 20
41.52737972365037
 10
33.14293357969152
 20
40.27157972365038
 10
33.03093357969151
 20
39.69022972365038
 10
32.83318357969151
 20
39.15087972365038
 10
32.55493357969152
 20
38.66297972365038
 10
32.20073357969151
 20
38.23492972365037
 10
31.77548357969152
 20
37.87582972365038
 10
31.28443357969152
 20
37.59407972365037
 10
30.73248357969151
 20
37.39842972365037
 10
30.32123357969152
 20
37.33332972365037
 10
30.09408357969152
 20
37.32247972365037
 10
29.85853357969151
 20
37.32562972365038
 10
29.61843357969151
 20
37.34277972365038
 10
29.37833357969151
 20
37.37392972365038
 10
29.14243357969151
 20
37.41802972365038
 10
28.91493357969152
 20
37.47542972365038
 10
28.70038357969151
 20
37.54577972365038
 10
27.75328357969152
 20
38.02877972365038
 10
27.32803357969151
 20
38.34797972365037
 10
26.94058357969152
 20
38.71267972365038
 10
26.59478357969152
 20
39.11797972365038
 10
26.29448357969152
 20
39.55967972365038
 10
26.04353357969152
 20
40.03252972365038
 10
25.84578357969152
 20
40.53267972365038
 10
25.70578357969152
 20
41.05452972365038
 10
25.63123357969152
 20
42.32327972365039
 10
25.73378357969152
 20
42.91442972365037
 10
25.92348357969152
 20
43.46427972365037
 10
26.19438357969152
 20
43.96372972365037
 10
26.54193357969152
 20
44.40262972365038
 10
26.96053357969152
 20
44.77257972365038
 10
27.44563357969152
 20
45.06342972365037
 10
27.99163357969152
 20
45.26642972365038
 10
28.30803357969152
 20
45.32137972365037
 10
28.49143357969152
 20
45.33712972365037
 10
28.68498357969151
 20
45.34517972365038
 10
28.88343357969152
 20
45.34517972365038
 10
29.08083357969152
 20
45.33712972365037
 10
29.27228357969152
 20
45.32137972365037
 10
29.45253357969151
 20
45.29792972365038
  0
LWPOLYLINE
  5
57
100
AcDbEntity
  8
SILK_TOP
  6
ByLayer
 62
  256
370
   -1
100
AcDbPolyline
 90
   66
 70
    1
 43
0
 10
31.21093357969152
 20
48.78077972365038
 10
31.70688357969152
 20
48.62747972365038
 10
31.93858357969151
 20
48.53192972365038
 10
32.16083357969152
 20
48.42307972365037
 10
32.37503357969152
 20
48.30057972365038
 10
32.58223357969152
 20
48.16337972365038
 10
32.78348357969152
 20
48.01112972365038
 10
32.97948357969151
 20
47.84312972365038
 10
33.17198357969151
 20
47.65867972365038
 10
33.40858357969152
 20
47.41612972365037
 10
33.50448357969152
 20
47.30902972365038
 10
33.58848357969152
 20
47.20682972365038
 10
33.66338357969152
 20
47.10637972365038
 10
33.73163357969151
 20
47.00417972365038
 10
33.79603357969151
 20
46.89672972365038
 10
33.85868357969152
 20
46.78157972365038
 10
33.92238357969151
 20
46.65452972365037
 10
34.11033357969151
 20
46.23487972365038
 10
34.18243357969152
 20
46.04167972365038
 10
34.24193357969152
 20
45.85197972365038
 10
34.28953357969151
 20
45.65982972365038
 10
34.32733357969152
 20
45.45962972365037
 10
34.35673357969152
 20
45.24542972365037
 10
34.37843357969152
 20
45.01162972365037
 10
34.39488357969152
 20
44.75227972365038
 10
34.43023357969151
 20
44.05542972365038
 10
34.22933357969152
 20
44.05542972365038
 10
33.65393357969152
 20
44.23777972365038
 10
33.26333357969152
 20
44.45477972365038
 10
32.81743357969152
 20
44.74492972365037
 10
32.32638357969152
 20
45.10157972365037
 10
31.80103357969152
 20
45.51667972365038
 10
31.25083357969151
 20
45.98287972365037
 10
30.68663357969152
 20
46.49282972365037
 10
30.11823357969151
 20
47.03847972365037
 10
29.57083357969152
 20
47.59742972365038
 10
29.35663357969151
 20
47.82982972365038
 10
29.17988357969151
 20
48.03352972365037
 10
29.03918357969152
 20
48.21062972365038
 10
28.93243357969152
 20
48.36357972365038
 10
28.85823357969151
 20
48.49447972365037
 10
28.81483357969152
 20
48.60542972365037
 10
28.80083357969151
 20
48.69817972365037
 10
28.80853357969152
 20
48.76152972365037
 10
28.81938357969152
 20
48.78567972365038
 10
28.83688357969152
 20
48.80562972365038
 10
28.86138357969152
 20
48.82172972365038
 10
28.89463357969152
 20
48.83502972365038
 10
28.93698357969152
 20
48.84622972365038
 10
28.99018357969152
 20
48.85532972365039
 10
29.05493357969152
 20
48.86372972365037
 10
29.15013357969152
 20
48.87667972365038
 10
29.19948357969152
 20
48.88402972365037
 10
29.24848357969152
 20
48.89172972365039
 10
29.29643357969152
 20
48.89907972365037
 10
29.34158357969152
 20
48.90607972365038
 10
29.38288357969152
 20
48.91237972365039
 10
29.41998357969151
 20
48.91797972365038
 10
29.45078357969152
 20
48.92252972365037
 10
29.73778357969152
 20
48.93897972365038
 10
29.93588357969152
 20
48.93442972365038
 10
30.15603357969152
 20
48.92252972365037
 10
30.38738357969152
 20
48.90362972365038
 10
30.61943357969152
 20
48.87947972365038
 10
30.84098357969152
 20
48.85007972365038
 10
31.04188357969151
 20
48.81717972365038
  0
LWPOLYLINE
  5
58
100
AcDbEntity
  8
SILK_TOP
  6
ByLayer
 62
  256
370
   -1
100
AcDbPolyline
 90
   48
 70
    1
 43
0
 10
20.26538357969152
 20
48.96417972365037
 10
20.33643357969151
 20
48.94387972365037
 10
20.36583357969151
 20
48.93057972365038
 10
20.39138357969151
 20
48.91482972365038
 10
20.41308357969152
 20
48.89732972365039
 10
20.43093357969152
 20
48.87737972365038
 10
20.44458357969152
 20
48.85532972365039
 10
20.45438357969152
 20
48.83082972365037
 10
20.46033357969151
 20
48.80457972365038
 10
20.09528357969151
 20
48.13747972365037
 10
19.65568357969151
 20
47.63312972365038
 10
19.09428357969152
 20
47.06122972365038
 10
18.44748357969151
 20
46.45642972365037
 10
17.75238357969152
 20
45.85267972365038
 10
17.04608357969152
 20
45.28567972365038
 10
16.36498357969152
 20
44.78902972365038
 10
15.74653357969152
 20
44.39807972365037
 10
15.50013357969151
 20
44.27277972365038
 10
15.38218357969151
 20
44.22377972365038
 10
15.27088357969152
 20
44.18457972365037
 10
15.16903357969152
 20
44.15622972365038
 10
15.07943357969152
 20
44.13907972365038
 10
15.00418357969152
 20
44.13347972365038
 10
14.94608357969152
 20
44.14117972365037
 10
14.90793357969152
 20
44.16182972365038
 10
14.86278357969152
 20
44.33122972365038
 10
14.85333357969152
 20
44.48102972365038
 10
14.85158357969151
 20
44.66092972365038
 10
14.85823357969152
 20
44.86077972365037
 10
14.87188357969152
 20
45.07077972365038
 10
14.89288357969152
 20
45.28112972365038
 10
14.92088357969151
 20
45.48132972365038
 10
14.95518357969151
 20
45.66192972365037
 10
15.32758357969152
 20
46.72277972365038
 10
15.59848357969151
 20
47.18652972365038
 10
15.92293357969152
 20
47.60372972365037
 10
16.29953357969152
 20
47.97297972365037
 10
16.72583357969152
 20
48.29217972365038
 10
17.20043357969152
 20
48.55992972365037
 10
17.72158357969152
 20
48.77447972365039
 10
18.28648357969152
 20
48.93442972365038
 10
18.63928357969152
 20
48.97677972365038
 10
18.88358357969152
 20
48.99077972365038
 10
19.15168357969151
 20
48.99987972365038
 10
19.42678357969151
 20
49.00372972365038
 10
19.69208357969152
 20
49.00232972365038
 10
19.93148357969152
 20
48.99532972365037
 10
20.12783357969152
 20
48.98272972365038
  0
LWPOLYLINE
  5
59
100
AcDbEntity
  8
SILK_TOP
  6
ByLayer
 62
  256
370
   -1
100
AcDbPolyline
 90
   40
 70
    1
 43
0
 10
25.61723357969151
 20
49.64317972365038
 10
26.57693357969152
 20
49.32887972365039
 10
27.01478357969152
 20
49.10732972365038
 10
27.41203357969152
 20
48.85287972365037
 10
27.75853357969152
 20
48.57357972365038
 10
28.04518357969152
 20
48.27712972365038
 10
28.26148357969151
 20
47.97157972365038
 10
28.39868357969152
 20
47.66427972365038
 10
28.44663357969152
 20
47.36327972365038
 10
28.20898357969152
 20
46.67867972365038
 10
27.93038357969152
 20
46.38257972365037
 10
27.55798357969152
 20
46.12322972365038
 10
27.10193357969153
 20
45.90587972365038
 10
26.57238357969152
 20
45.73507972365038
 10
25.97948357969152
 20
45.61572972365038
 10
25.33268357969152
 20
45.55237972365038
 10
24.64248357969152
 20
45.54992972365037
 10
23.84518357969152
 20
45.62692972365038
 10
23.47663357969152
 20
45.69587972365038
 10
23.12978357969152
 20
45.78512972365037
 10
22.80603357969152
 20
45.89397972365038
 10
22.50643357969152
 20
46.02207972365038
 10
22.23238357969152
 20
46.16907972365037
 10
21.98493357969151
 20
46.33462972365037
 10
21.76583357969152
 20
46.51837972365038
 10
21.38923357969151
 20
46.96357972365037
 10
21.28178357969152
 20
47.18232972365037
 10
21.22858357969152
 20
47.40037972365037
 10
21.22963357969152
 20
47.61877972365038
 10
21.28493357969151
 20
47.83962972365038
 10
21.39448357969152
 20
48.06362972365037
 10
21.55898357969152
 20
48.29217972365038
 10
21.77773357969151
 20
48.52702972365037
 10
22.51238357969152
 20
49.08562972365038
 10
22.92258357969152
 20
49.30332972365038
 10
23.35378357969152
 20
49.47762972365037
 10
23.80003357969152
 20
49.60712972365038
 10
24.25538357969151
 20
49.68972972365037
 10
24.71388357969152
 20
49.72472972365038
 10
25.16993357969151
 20
49.70967972365038
  0
LWPOLYLINE
  5
5A
100
AcDbEntity
  8
SILK_TOP
  6
ByLayer
 62
  256
370
   -1
100
AcDbPolyline
 90
  428
 70
    1
 43
0
 10
31.02193357969151
 20
58.55697972365037
 10
30.96873357969152
 20
58.44987972365037
 10
30.95018357969152
 20
58.39037972365036
 10
30.93688357969152
 20
58.33017972365037
 10
30.92953357969152
 20
58.27172972365039
 10
30.92813357969152
 20
58.21712972365038
 10
30.93338357969152
 20
58.16917972365038
 10
30.94458357969152
 20
58.12997972365037
 10
30.96278357969151
 20
58.10197972365036
 10
30.99288357969152
 20
58.10127972365036
 10
31.01983357969151
 20
58.10827972365037
 10
31.05413357969152
 20
58.12017972365037
 10
31.09438357969152
 20
58.13662972365038
 10
31.14023357969152
 20
58.15657972365038
 10
31.18993357969152
 20
58.18037972365038
 10
31.24348357969151
 20
58.20767972365037
 10
31.29948357969151
 20
58.23777972365037
 10
31.54833357969152
 20
58.35852972365038
 10
31.69533357969152
 20
58.41977972365036
 10
31.84793357969151
 20
58.47822972365038
 10
31.99913357969152
 20
58.53177972365038
 10
32.14228357969151
 20
58.57797972365037
 10
32.27003357969151
 20
58.61367972365036
 10
32.37538357969152
 20
58.63712972365038
 10
32.45133357969151
 20
58.64552972365038
 10
32.48143357969152
 20
58.63642972365037
 10
32.48598357969152
 20
58.62522972365038
 10
32.48353357969151
 20
58.60877972365037
 10
32.47373357969152
 20
58.58777972365037
 10
32.45623357969151
 20
58.56152972365037
 10
32.43103357969152
 20
58.53002972365037
 10
32.39813357969151
 20
58.49292972365038
 10
32.35683357969152
 20
58.45057972365037
 10
32.23398357969152
 20
58.30147972365038
 10
32.19618357969152
 20
58.2360297236504
 10
32.17378357969151
 20
58.17862972365038
 10
32.16748357969151
 20
58.13137972365037
 10
32.17693357969151
 20
58.09602972365036
 10
32.20283357969152
 20
58.07432972365037
 10
32.24518357969152
 20
58.06767972365038
 10
32.30363357969152
 20
58.07852972365038
 10
32.55458357969152
 20
58.14572972365038
 10
32.70858357969152
 20
58.18562972365038
 10
32.87098357969152
 20
58.22692972365039
 10
33.03373357969152
 20
58.26752972365036
 10
33.18843357969152
 20
58.30602972365037
 10
33.32773357969152
 20
58.33962972365037
 10
33.44288357969151
 20
58.36692972365038
 10
33.52653357969152
 20
58.38547972365038
 10
33.72743357969152
 20
58.42677972365038
 10
33.53843357969151
 20
58.20837972365037
 10
33.38093357969152
 20
58.00327972365037
 10
33.35153357969151
 20
57.93432972365036
 10
33.35678357969152
 20
57.88707972365037
 10
33.39808357969152
 20
57.85977972365038
 10
33.47718357969152
 20
57.85207972365038
 10
33.59478357969152
 20
57.86292972365038
 10
33.75228357969151
 20
57.89162972365037
 10
33.95178357969152
 20
57.93642972365036
 10
34.26223357969152
 20
58.00397972365037
 10
34.39698357969151
 20
58.02637972365036
 10
34.52088357969151
 20
58.04142972365037
 10
34.63603357969152
 20
58.04982972365038
 10
34.74488357969151
 20
58.05157972365038
 10
34.84988357969151
 20
58.04702972365039
 10
34.95278357969151
 20
58.03617972365036
 10
35.05638357969152
 20
58.01937972365038
 10
35.24538357969151
 20
57.97807972365039
 10
35.02698357969152
 20
57.75337972365039
 10
34.80228357969152
 20
57.52307972365037
 10
35.61148357969152
 20
57.52307972365037
 10
35.89253357969151
 20
57.52132972365038
 10
36.01818357969152
 20
57.51957972365039
 10
36.13123357969152
 20
57.51712972365037
 10
36.22923357969151
 20
57.51432972365038
 10
36.30938357969151
 20
57.5108297236504
 10
36.36993357969152
 20
57.50732972365038
 10
36.40773357969152
 20
57.50347972365036
 10
36.42068357969151
 20
57.49962972365039
 10
36.40948357969151
 20
57.47127972365038
 10
36.39583357969152
 20
57.44642972365038
 10
36.37763357969151
 20
57.41527972365037
 10
36.35558357969151
 20
57.37887972365039
 10
36.32968357969151
 20
57.33792972365036
 10
36.30133357969152
 20
57.29382972365037
 10
36.27053357969152
 20
57.24692972365039
 10
36.23763357969152
 20
57.19827972365038
 10
36.11723357969151
 20
56.99282972365037
 10
36.05598357969151
 20
56.87417972365036
 10
35.99718357969152
 20
56.75237972365039
 10
35.94363357969151
 20
56.63232972365038
 10
35.89778357969151
 20
56.51997972365037
 10
35.86173357969152
 20
56.42057972365038
 10
35.83863357969151
 20
56.33972972365038
 10
35.83023357969152
 20
56.28267972365038
 10
35.85088357969152
 20
56.26097972365039
 10
35.87503357969152
 20
56.25152972365039
 10
35.90723357969151
 20
56.24347972365037
 10
35.94678357969152
 20
56.23647972365038
 10
35.99193357969152
 20
56.23087972365038
 10
36.04268357969152
 20
56.22702972365037
 10
36.09728357969152
 20
56.22457972365039
 10
36.15503357969152
 20
56.22352972365037
 10
36.27473357969151
 20
56.22002972365038
 10
36.32583357969152
 20
56.21582972365038
 10
36.37063357969151
 20
56.21022972365039
 10
36.40878357969152
 20
56.20287972365036
 10
36.43888357969152
 20
56.19377972365038
 10
36.46128357969152
 20
56.18362972365037
 10
36.47528357969152
 20
56.17172972365037
 10
36.47983357969151
 20
56.15877972365038
 10
36.45008357969152
 20
56.10627972365036
 10
36.41508357969151
 20
56.06112972365038
 10
36.36853357969152
 20
56.00547972365038
 10
36.31148357969152
 20
55.94037972365038
 10
36.24533357969151
 20
55.86792972365039
 10
36.17183357969152
 20
55.78952972365038
 10
36.09203357969152
 20
55.70692972365039
 10
36.00733357969152
 20
55.62117972365037
 10
35.84528357969153
 20
55.45247972365037
 10
35.77458357969152
 20
55.37442972365037
 10
35.71228357969152
 20
55.30232972365039
 10
35.65978357969152
 20
55.23757972365037
 10
35.61778357969152
 20
55.18262972365036
 10
35.58838357969151
 20
55.13852972365036
 10
35.57193357969151
 20
55.10702972365037
 10
35.57018357969152
 20
55.08952972365039
 10
35.60483357969151
 20
55.06922972365038
 10
35.63458357969152
 20
55.06187972365039
 10
35.67133357969152
 20
55.05627972365038
 10
35.71403357969152
 20
55.05242972365038
 10
35.76198357969152
 20
55.04997972365037
 10
35.81343357969152
 20
55.04962972365038
 10
35.86803357969152
 20
55.05102972365037
 10
35.92473357969151
 20
55.05417972365038
 10
36.03638357969151
 20
55.06152972365038
 10
36.08608357969152
 20
55.06222972365038
 10
36.13053357969152
 20
55.06117972365037
 10
36.16903357969152
 20
55.05837972365038
 10
36.20018357969152
 20
55.05347972365038
 10
36.22363357969151
 20
55.04717972365037
 10
36.23868357969151
 20
55.03947972365036
 10
36.24358357969152
 20
55.03037972365038
 10
36.21243357969151
 20
54.97962972365036
 10
36.17533357969151
 20
54.93307972365037
 10
36.12563357969152
 20
54.87462972365039
 10
36.06508357969152
 20
54.80567972365039
 10
35.99508357969152
 20
54.72797972365036
 10
35.91703357969152
 20
54.64292972365038
 10
35.83198357969152
 20
54.55227972365039
 10
35.74168357969152
 20
54.45742972365036
 10
35.56633357969152
 20
54.27507972365038
 10
35.48793357969152
 20
54.19107972365038
 10
35.41793357969151
 20
54.11442972365037
 10
35.35738357969151
 20
54.04652972365038
 10
35.30803357969152
 20
53.98912972365039
 10
35.27093357969152
 20
53.94397972365039
 10
35.24748357969151
 20
53.91247972365038
 10
35.23943357969151
 20
53.89637972365037
 10
35.25833357969152
 20
53.88482972365038
 10
35.28108357969152
 20
53.87922972365037
 10
35.31118357969151
 20
53.87432972365038
 10
35.34793357969151
 20
53.86977972365038
 10
35.39098357969151
 20
53.86592972365038
 10
35.43893357969151
 20
53.86312972365039
 10
35.49108357969151
 20
53.86137972365037
 10
35.54673357969152
 20
53.86067972365038
 10
35.85368357969151
 20
53.86067972365038
 10
35.67658357969152
 20
53.67762972365037
 10
35.58803357969151
 20
53.59257972365037
 10
35.52748357969152
 20
53.53867972365038
 10
35.45818357969151
 20
53.47952972365039
 10
35.38258357969152
 20
53.41582972365038
 10
35.30208357969152
 20
53.35002972365038
 10
35.21878357969152
 20
53.28317972365038
 10
35.13408357969151
 20
53.21667972365039
 10
35.05043357969152
 20
53.15192972365037
 10
34.89538357969151
 20
53.03012972365039
 10
34.82748357969152
 20
52.97377972365038
 10
34.76763357969152
 20
52.92232972365039
 10
34.71688357969152
 20
52.87682972365037
 10
34.67663357969151
 20
52.83797972365038
 10
34.64828357969152
 20
52.80717972365036
 10
34.63253357969151
 20
52.78547972365037
 10
34.63113357969151
 20
52.77392972365038
 10
34.66403357969151
 20
52.76237972365037
 10
34.69203357969151
 20
52.75677972365038
 10
34.72668357969152
 20
52.75187972365038
 10
34.76693357969151
 20
52.74732972365037
 10
34.81208357969152
 20
52.74382972365038
 10
34.86143357969151
 20
52.74102972365039
 10
34.91358357969152
 20
52.73927972365038
 10
34.96783357969151
 20
52.73857972365037
 10
35.26883357969151
 20
52.73262972365038
 10
35.03853357969151
 20
52.53767972365037
 10
34.92688357969151
 20
52.45122972365037
 10
34.85478357969152
 20
52.40152972365038
 10
34.77498357969151
 20
52.34832972365038
 10
34.68958357969152
 20
52.29407972365037
 10
34.60033357969152
 20
52.23877972365038
 10
34.50898357969152
 20
52.18452972365037
 10
34.41833357969151
 20
52.13202972365036
 10
34.32978357969151
 20
52.08302972365038
 10
34.00288357969151
 20
51.90872972365039
 10
33.89298357969152
 20
51.84712972365038
 10
33.81493357969152
 20
51.79847972365039
 10
33.76453357969152
 20
51.76102972365038
 10
33.73863357969152
 20
51.73197972365039
 10
33.73408357969152
 20
51.70852972365039
 10
33.74703357969151
 20
51.68857972365036
 10
33.77468357969151
 20
51.66932972365038
 10
33.81493357969152
 20
51.65077972365038
 10
33.84363357969151
 20
51.64237972365038
 10
33.87618357969151
 20
51.63502972365038
 10
33.91258357969151
 20
51.62872972365037
 10
33.95178357969152
 20
51.62347972365037
 10
33.99238357969151
 20
51.61962972365036
 10
34.03403357969152
 20
51.61717972365038
 10
34.07568357969152
 20
51.61612972365037
 10
34.15723357969151
 20
51.61297972365037
 10
34.19048357969151
 20
51.60877972365038
 10
34.21848357969152
 20
51.60317972365037
 10
34.24053357969152
 20
51.59652972365037
 10
34.25663357969152
 20
51.58812972365039
 10
34.26608357969153
 20
51.57902972365039
 10
34.26888357969152
 20
51.56852972365039
 10
34.26468357969151
 20
51.55697972365037
 10
34.16493357969152
 20
51.47367972365037
 10
34.07498357969152
 20
51.42187972365036
 10
33.96228357969152
 20
51.36482972365039
 10
33.83068357969152
 20
51.30427972365037
 10
33.68298357969152
 20
51.24162972365038
 10
33.52268357969152
 20
51.17827972365039
 10
33.35328357969151
 20
51.11562972365037
 10
33.17793357969152
 20
51.05507972365038
 10
32.67603357969152
 20
50.88952972365038
 10
32.81183357969152
 20
50.78347972365037
 10
32.86468357969152
 20
50.74287972365038
 10
32.89198357969152
 20
50.72537972365038
 10
32.91893357969152
 20
50.70962972365037
 10
32.94483357969152
 20
50.69667972365038
 10
32.96968357969152
 20
50.68582972365038
 10
32.99243357969152
 20
50.67777972365037
 10
33.01273357969152
 20
50.67287972365038
 10
33.03023357969152
 20
50.67112972365038
 10
33.05963357969151
 20
50.66762972365038
 10
33.07258357969152
 20
50.66377972365038
 10
33.08413357969152
 20
50.65852972365037
 10
33.09393357969152
 20
50.65222972365038
 10
33.10198357969151
 20
50.64487972365038
 10
33.10793357969151
 20
50.63647972365038
 10
33.11178357969151
 20
50.62737972365038
 10
33.11283357969151
 20
50.61792972365038
 10
33.02848357969152
 20
50.55807972365038
 10
32.93223357969152
 20
50.52377972365038
 10
32.80833357969151
 20
50.48842972365038
 10
32.66273357969152
 20
50.45377972365037
 10
32.50208357969152
 20
50.42052972365038
 10
32.33233357969151
 20
50.39077972365038
 10
32.15978357969152
 20
50.36557972365038
 10
31.99073357969151
 20
50.34632972365037
 10
31.67433357969152
 20
50.31692972365038
 10
31.56408357969151
 20
50.30257972365038
 10
31.48183357969152
 20
50.28752972365038
 10
31.42443357969152
 20
50.27002972365038
 10
31.38943357969151
 20
50.25007972365037
 10
31.37368357969151
 20
50.22592972365038
 10
31.37403357969151
 20
50.19722972365037
 10
31.38803357969152
 20
50.16327972365038
 10
31.41743357969152
 20
50.12302972365038
 10
31.43843357969152
 20
50.10027972365037
 10
31.46293357969152
 20
50.07647972365038
 10
31.48988357969152
 20
50.05197972365038
 10
31.51893357969152
 20
50.02712972365038
 10
31.54973357969151
 20
50.00262972365038
 10
31.58088357969152
 20
49.97882972365038
 10
31.61273357969151
 20
49.95642972365037
 10
31.78388357969151
 20
49.83217972365038
 10
30.98658357969152
 20
49.86192972365038
 10
30.16268357969151
 20
49.93857972365038
 10
29.78853357969151
 20
50.00857972365038
 10
29.43958357969152
 20
50.09922972365038
 10
29.11513357969152
 20
50.21157972365037
 10
28.81553357969152
 20
50.34527972365038
 10
28.54008357969152
 20
50.50102972365038
 10
28.28913357969152
 20
50.67812972365037
 10
28.06268357969152
 20
50.87797972365038
 10
27.85058357969152
 20
51.11947972365037
 10
27.74733357969151
 20
51.26227972365037
 10
27.65038357969151
 20
51.41137972365037
 10
27.56358357969152
 20
51.56047972365037
 10
27.48973357969152
 20
51.70432972365037
 10
27.43303357969152
 20
51.83662972365038
 10
27.39628357969152
 20
51.95072972365039
 10
27.38333357969152
 20
52.04137972365039
 10
27.48833357969151
 20
52.19747972365037
 10
27.60943357969152
 20
52.32662972365038
 10
27.76623357969152
 20
52.48132972365038
 10
27.95173357969151
 20
52.65422972365036
 10
28.15963357969152
 20
52.83902972365038
 10
28.38188357969152
 20
53.02942972365038
 10
28.61183357969152
 20
53.21877972365039
 10
28.84213357969152
 20
53.40007972365038
 10
29.56418357969152
 20
53.92682972365039
 10
29.96878357969152
 20
54.20227972365038
 10
30.39508357969152
 20
54.48157972365037
 10
30.83853357969151
 20
54.76087972365036
 10
31.29353357969151
 20
55.03737972365037
 10
31.75483357969152
 20
55.30757972365039
 10
32.21718357969152
 20
55.56832972365039
 10
32.67603357969152
 20
55.81612972365038
 10
32.91018357969151
 20
55.94422972365038
 10
33.01378357969152
 20
56.00232972365038
 10
33.10618357969152
 20
56.05482972365037
 10
33.18563357969152
 20
56.10102972365036
 10
33.24933357969152
 20
56.13987972365038
 10
33.29658357969152
 20
56.16997972365036
 10
33.32458357969151
 20
56.19027972365036
 10
33.33158357969151
 20
56.20007972365037
 10
33.16463357969152
 20
56.15667972365037
 10
32.98858357969151
 20
56.09577972365037
 10
32.76983357969151
 20
56.01597972365037
 10
32.52168357969152
 20
55.92217972365037
 10
32.25883357969151
 20
55.81962972365038
 10
31.99423357969152
 20
55.71427972365038
 10
31.74293357969152
 20
55.61067972365038
 10
31.51823357969151
 20
55.51477972365038
 10
30.55188357969151
 20
55.06257972365039
 10
30.06153357969151
 20
54.80917972365037
 10
29.57398357969151
 20
54.54247972365037
 10
29.09553357969151
 20
54.26527972365038
 10
28.63108357969151
 20
53.98142972365038
 10
28.18728357969152
 20
53.69407972365036
 10
27.76938357969152
 20
53.40672972365037
 10
27.38333357969152
 20
53.12252972365037
 10
26.78063357969152
 20
52.66752972365039
 10
26.46773357969152
 20
52.88627972365039
 10
26.16113357969152
 20
53.13022972365037
 10
26.03653357969152
 20
53.26042972365038
 10
25.92978357969152
 20
53.39727972365039
 10
25.84018357969152
 20
53.54252972365039
 10
25.76668357969152
 20
53.69757972365038
 10
25.70858357969151
 20
53.86312972365039
 10
25.66483357969152
 20
54.04127972365038
 10
25.63473357969152
 20
54.23307972365038
 10
25.65958357969152
 20
54.82352972365038
 10
25.73378357969152
 20
55.15427972365038
 10
25.84648357969152
 20
55.50112972365037
 10
25.99453357969152
 20
55.85812972365038
 10
26.17548357969152
 20
56.22002972365038
 10
26.38758357969152
 20
56.58052972365036
 10
26.62733357969152
 20
56.93402972365038
 10
26.89298357969152
 20
57.27492972365036
 10
27.04733357969152
 20
57.44747972365038
 10
27.10753357969152
 20
57.50662972365037
 10
27.15758357969151
 20
57.54792972365037
 10
27.19748357969151
 20
57.57207972365038
 10
27.22758357969152
 20
57.57907972365037
 10
27.24893357969152
 20
57.56927972365038
 10
27.26118357969152
 20
57.54267972365037
 10
27.26503357969152
 20
57.49962972365039
 10
27.26923357969152
 20
57.45937972365038
 10
27.27378357969152
 20
57.43382972365036
 10
27.28008357969152
 20
57.40582972365039
 10
27.28743357969152
 20
57.37572972365039
 10
27.29583357969152
 20
57.34457972365036
 10
27.30493357969152
 20
57.3130797236504
 10
27.31438357969152
 20
57.28157972365038
 10
27.32418357969152
 20
57.25147972365038
 10
27.36198357969152
 20
57.17692972365037
 10
27.38753357969152
 20
57.16572972365038
 10
27.42498357969152
 20
57.17762972365038
 10
27.47923357969152
 20
57.21577972365036
 10
27.55623357969151
 20
57.28367972365038
 10
27.66053357969152
 20
57.38587972365036
 10
27.79808357969151
 20
57.52517972365037
 10
27.97413357969151
 20
57.70612972365038
 10
28.55863357969152
 20
58.32037972365038
 10
28.56458357969152
 20
58.05472972365038
 10
28.57928357969152
 20
57.82617972365038
 10
28.60028357969152
 20
57.75827972365037
 10
28.63283357969152
 20
57.72152972365036
 10
28.67868357969152
 20
57.71487972365037
 10
28.73958357969152
 20
57.73867972365036
 10
28.81763357969151
 20
57.79292972365037
 10
28.91423357969151
 20
57.87657972365037
 10
29.03113357969151
 20
57.98962972365037
 10
29.16168357969152
 20
58.11212972365038
 10
29.22783357969151
 20
58.17127972365037
 10
29.29293357969151
 20
58.22797972365036
 10
29.35523357969151
 20
58.28047972365038
 10
29.41368357969152
 20
58.32807972365038
 10
29.46688357969152
 20
58.36902972365037
 10
29.51308357969152
 20
58.40227972365038
 10
29.55123357969152
 20
58.42677972365038
 10
29.73428357969151
 20
58.52722972365038
 10
29.70453357969152
 20
58.30287972365036
 10
29.69508357969152
 20
58.20662972365038
 10
29.69543357969152
 20
58.16567972365036
 10
29.69858357969151
 20
58.12892972365036
 10
29.70558357969152
 20
58.09672972365036
 10
29.71608357969152
 20
58.06802972365039
 10
29.73008357969151
 20
58.04282972365036
 10
29.74793357969152
 20
58.02077972365038
 10
29.76963357969152
 20
58.00152972365039
 10
29.82213357969152
 20
57.96897972365038
 10
29.84873357969152
 20
57.96477972365038
 10
29.87848357969151
 20
57.9693297236504
 10
29.91313357969152
 20
57.98297972365037
 10
29.95443357969151
 20
58.00677972365038
 10
30.00378357969152
 20
58.04107972365039
 10
30.06398357969152
 20
58.08622972365036
 10
30.13573357969151
 20
58.14327972365037
 10
30.34923357969151
 20
58.30147972365038
 10
30.47383357969152
 20
58.38477972365038
 10
30.60158357969152
 20
58.46527972365038
 10
30.72618357969152
 20
58.54017972365038
 10
30.84168357969152
 20
58.60492972365037
 10
30.94143357969151
 20
58.65637972365036
 10
31.01948357969152
 20
58.69102972365038
 10
31.06918357969151
 20
58.70432972365036
 10
31.07898357969152
 20
58.69522972365039
 10
31.07933357969151
 20
58.68472972365038
 10
31.07653357969152
 20
58.67002972365038
 10
31.07128357969152
 20
58.6525297236504
 10
31.06323357969151
 20
58.63187972365037
 10
31.05203357969152
 20
58.60877972365037
 10
31.03838357969152
 20
58.5835797236504
  0
LWPOLYLINE
  5
5B
100
AcDbEntity
  8
SILK_TOP
  6
ByLayer
 62
  256
370
   -1
100
AcDbPolyline
 90
  410
 70
    1
 43
0
 10
19.05438357969152
 20
58.50972972365037
 10
19.14328357969151
 20
58.45442972365039
 10
19.19578357969151
 20
58.41907972365037
 10
19.25213357969152
 20
58.38022972365037
 10
19.31058357969152
 20
58.33857972365038
 10
19.37008357969151
 20
58.29482972365037
 10
19.42888357969152
 20
58.25002972365038
 10
19.48558357969151
 20
58.20522972365038
 10
19.53878357969151
 20
58.1611297236504
 10
19.63923357969151
 20
58.08272972365038
 10
19.68648357969152
 20
58.04772972365038
 10
19.73023357969151
 20
58.01657972365037
 10
19.77013357969151
 20
57.98927972365038
 10
19.80478357969152
 20
57.96722972365036
 10
19.83383357969151
 20
57.95077972365038
 10
19.85553357969151
 20
57.94027972365036
 10
19.86953357969151
 20
57.93642972365036
 10
19.93323357969151
 20
57.97492972365038
 10
19.96123357969152
 20
58.0172797236504
 10
19.98468357969152
 20
58.07082972365038
 10
20.00288357969151
 20
58.13172972365038
 10
20.01443357969152
 20
58.19647972365038
 10
20.01863357969151
 20
58.26192972365038
 10
20.01408357969152
 20
58.32387972365036
 10
19.99973357969152
 20
58.37952972365039
 10
19.98258357969152
 20
58.43167972365036
 10
19.97628357969151
 20
58.4547797236504
 10
19.97173357969152
 20
58.47507972365037
 10
19.96893357969152
 20
58.49292972365038
 10
19.96753357969152
 20
58.50727972365036
 10
19.96858357969152
 20
58.51812972365038
 10
19.97103357969151
 20
58.52477972365037
 10
19.97593357969151
 20
58.52722972365038
 10
20.08198357969152
 20
58.47787972365038
 10
20.16493357969151
 20
58.42222972365037
 10
20.26083357969151
 20
58.35152972365037
 10
20.36443357969151
 20
58.26997972365037
 10
20.47048357969152
 20
58.18177972365039
 10
20.57338357969152
 20
58.09077972365036
 10
20.66858357969151
 20
58.00187972365038
 10
20.74978357969151
 20
57.91892972365038
 10
20.87333357969152
 20
57.78942972365039
 10
20.91848357969152
 20
57.74707972365038
 10
20.95523357969151
 20
57.71872972365037
 10
20.98603357969152
 20
57.70297972365037
 10
21.01228357969152
 20
57.69877972365038
 10
21.03643357969152
 20
57.70542972365039
 10
21.06058357969152
 20
57.72222972365036
 10
21.08648357969152
 20
57.74742972365039
 10
21.11763357969151
 20
57.79712972365036
 10
21.13233357969152
 20
57.82862972365037
 10
21.14633357969151
 20
57.86292972365038
 10
21.15928357969152
 20
57.90002972365038
 10
21.17048357969151
 20
57.93817972365037
 10
21.17993357969152
 20
57.97737972365038
 10
21.18763357969151
 20
58.01657972365037
 10
21.19288357969151
 20
58.05472972365038
 10
21.21038357969152
 20
58.26157972365036
 10
21.47638357969152
 20
57.99557972365037
 10
21.58768357969151
 20
57.88287972365038
 10
21.65033357969152
 20
57.81777972365037
 10
21.71578357969151
 20
57.74952972365038
 10
21.78193357969152
 20
57.67917972365038
 10
21.84773357969152
 20
57.60847972365037
 10
21.91143357969152
 20
57.53917972365038
 10
21.97128357969152
 20
57.47267972365036
 10
22.02553357969152
 20
57.41072972365037
 10
22.30938357969152
 20
57.09187972365038
 10
22.49838357969152
 20
57.58817972365038
 10
22.69893357969152
 20
57.39322972365039
 10
23.04123357969151
 20
56.99247972365036
 10
23.21413357969152
 20
56.74502972365038
 10
23.38248357969152
 20
56.47727972365037
 10
23.54138357969152
 20
56.19657972365037
 10
23.68628357969152
 20
55.91062972365039
 10
23.81263357969151
 20
55.62782972365038
 10
23.91658357969151
 20
55.35517972365038
 10
23.99253357969152
 20
55.10142972365038
 10
24.06988357969152
 20
54.45742972365036
 10
24.04398357969151
 20
54.15117972365037
 10
23.97748357969152
 20
53.86032972365037
 10
23.87108357969151
 20
53.58872972365037
 10
23.72653357969152
 20
53.34022972365038
 10
23.54523357969152
 20
53.11797972365036
 10
23.32823357969152
 20
52.92617972365036
 10
23.07728357969152
 20
52.76797972365038
 10
22.97858357969152
 20
52.72422972365038
 10
22.93728357969152
 20
52.71652972365037
 10
22.89563357969152
 20
52.72072972365038
 10
22.84908357969152
 20
52.73787972365038
 10
22.79343357969152
 20
52.77007972365038
 10
22.72448357969152
 20
52.81942972365037
 10
22.63733357969152
 20
52.88697972365038
 10
22.52778357969152
 20
52.97482972365036
 10
21.59048357969152
 20
53.65732972365036
 10
21.04448357969152
 20
54.00662972365038
 10
20.45963357969152
 20
54.35452972365039
 10
19.84503357969151
 20
54.69542972365038
 10
19.21083357969151
 20
55.02442972365039
 10
18.56578357969152
 20
55.33592972365038
 10
17.92003357969152
 20
55.62537972365037
 10
17.28233357969152
 20
55.88682972365037
 10
16.74018357969151
 20
56.09332972365039
 10
16.58548357969151
 20
56.14582972365038
 10
16.50813357969151
 20
56.16332972365036
 10
16.50813357969151
 20
56.14477972365037
 10
16.58548357969151
 20
56.08877972365038
 10
16.74018357969151
 20
55.99427972365038
 10
16.97258357969151
 20
55.86022972365038
 10
17.28233357969152
 20
55.68592972365039
 10
18.64593357969152
 20
54.89737972365037
 10
19.23988357969152
 20
54.53197972365038
 10
19.78238357969152
 20
54.17987972365037
 10
20.28008357969151
 20
53.83757972365038
 10
20.73788357969152
 20
53.50087972365037
 10
21.16173357969152
 20
53.16592972365036
 10
21.55758357969151
 20
52.82852972365038
 10
21.93103357969152
 20
52.48447972365038
 10
22.17848357969152
 20
52.23352972365038
 10
22.25338357969152
 20
52.13727972365037
 10
22.29713357969151
 20
52.04942972365038
 10
22.31113357969152
 20
51.96157972365037
 10
22.29608357969152
 20
51.86497972365038
 10
22.25373357969152
 20
51.75122972365038
 10
22.18478357969152
 20
51.61227972365037
 10
22.09063357969152
 20
51.43902972365039
 10
21.64963357969152
 20
50.86852972365038
 10
21.35598357969152
 20
50.62702972365038
 10
21.01683357969151
 20
50.41632972365038
 10
20.63498357969151
 20
50.23712972365038
 10
20.21288357969151
 20
50.09082972365037
 10
19.75263357969152
 20
49.97882972365038
 10
19.25773357969151
 20
49.90217972365038
 10
18.72958357969151
 20
49.86192972365038
 10
17.96168357969151
 20
49.83217972365038
 10
18.16853357969152
 20
50.00962972365038
 10
18.24658357969152
 20
50.08277972365038
 10
18.27633357969151
 20
50.11532972365038
 10
18.29943357969152
 20
50.14507972365038
 10
18.31623357969151
 20
50.17167972365039
 10
18.32638357969152
 20
50.19512972365038
 10
18.32988357969151
 20
50.21542972365038
 10
18.32638357969152
 20
50.23222972365038
 10
18.31623357969151
 20
50.24587972365038
 10
18.25708357969152
 20
50.26862972365038
 10
18.20143357969151
 20
50.28157972365038
 10
18.13038357969151
 20
50.29557972365038
 10
18.04708357969151
 20
50.30992972365037
 10
17.95258357969152
 20
50.32427972365038
 10
17.84933357969151
 20
50.33827972365038
 10
17.73943357969151
 20
50.35157972365037
 10
17.62498357969152
 20
50.36382972365038
 10
17.39083357969151
 20
50.39532972365038
 10
17.27568357969152
 20
50.41317972365038
 10
17.16543357969152
 20
50.43207972365038
 10
17.06218357969152
 20
50.45097972365038
 10
16.96838357969152
 20
50.47022972365038
 10
16.88648357969151
 20
50.48912972365038
 10
16.81928357969151
 20
50.50697972365037
 10
16.76853357969152
 20
50.52342972365037
 10
16.55013357969151
 20
50.61792972365038
 10
16.75068357969151
 20
50.71837972365037
 10
16.81893357969152
 20
50.75582972365038
 10
16.85008357969152
 20
50.77507972365038
 10
16.87843357969151
 20
50.79467972365038
 10
16.90293357969151
 20
50.81322972365038
 10
16.92323357969152
 20
50.83072972365038
 10
16.93863357969152
 20
50.84682972365037
 10
16.94843357969151
 20
50.86047972365039
 10
16.95158357969152
 20
50.87202972365039
 10
16.91938357969152
 20
50.89967972365038
 10
16.87843357969151
 20
50.92137972365038
 10
16.82383357969152
 20
50.94727972365038
 10
16.75628357969151
 20
50.97597972365038
 10
16.67823357969151
 20
51.00747972365039
 10
16.59108357969151
 20
51.04072972365037
 10
16.49658357969152
 20
51.07432972365037
 10
16.39648357969152
 20
51.10827972365038
 10
15.88863357969151
 20
51.29377972365037
 10
15.70173357969152
 20
51.37392972365036
 10
15.56173357969152
 20
51.44392972365038
 10
15.46968357969152
 20
51.50342972365038
 10
15.42733357969151
 20
51.55137972365038
 10
15.43573357969152
 20
51.58672972365036
 10
15.49628357969151
 20
51.60877972365038
 10
15.61073357969152
 20
51.61612972365037
 10
15.74793357969151
 20
51.62732972365038
 10
15.81233357969152
 20
51.63957972365039
 10
15.87043357969151
 20
51.65532972365038
 10
15.92013357969152
 20
51.67352972365039
 10
15.95863357969152
 20
51.69312972365037
 10
15.98348357969152
 20
51.71342972365037
 10
15.99258357969152
 20
51.73337972365039
 10
15.98278357969151
 20
51.75192972365038
 10
15.94253357969151
 20
51.77537972365039
 10
15.90263357969151
 20
51.79742972365037
 10
15.85188357969151
 20
51.82542972365039
 10
15.79133357969152
 20
51.85832972365039
 10
15.72273357969152
 20
51.89542972365037
 10
15.64713357969152
 20
51.93602972365038
 10
15.56593357969151
 20
51.97907972365039
 10
15.48088357969151
 20
52.02387972365038
 10
15.16308357969152
 20
52.20412972365037
 10
15.01433357969151
 20
52.29547972365037
 10
14.87713357969152
 20
52.38437972365038
 10
14.75568357969151
 20
52.46802972365037
 10
14.65383357969151
 20
52.54362972365037
 10
14.57578357969152
 20
52.60872972365037
 10
14.52538357969151
 20
52.66087972365038
 10
14.50613357969152
 20
52.69727972365038
 10
14.52258357969152
 20
52.71197972365037
 10
14.54218357969151
 20
52.71827972365038
 10
14.56808357969151
 20
52.72422972365038
 10
14.59923357969152
 20
52.72912972365036
 10
14.63563357969151
 20
52.73297972365037
 10
14.67623357969152
 20
52.73612972365038
 10
14.71998357969152
 20
52.73787972365038
 10
14.76618357969151
 20
52.73857972365037
 10
14.86103357969152
 20
52.74172972365038
 10
14.90443357969151
 20
52.74557972365037
 10
14.94433357969152
 20
52.75082972365037
 10
14.97968357969151
 20
52.75747972365039
 10
15.00978357969152
 20
52.76482972365038
 10
15.03393357969152
 20
52.77322972365039
 10
15.05143357969152
 20
52.78197972365038
 10
15.06158357969151
 20
52.79177972365038
 10
15.05913357969152
 20
52.81942972365037
 10
15.04793357969152
 20
52.83832972365039
 10
15.03078357969152
 20
52.85967972365037
 10
15.00803357969152
 20
52.88347972365037
 10
14.98038357969152
 20
52.90867972365038
 10
14.94818357969152
 20
52.93457972365037
 10
14.91213357969152
 20
52.96082972365038
 10
14.87258357969151
 20
52.98672972365038
 10
14.62793357969152
 20
53.16697972365037
 10
14.48793357969151
 20
53.27862972365038
 10
14.34688357969151
 20
53.39517972365037
 10
14.21353357969151
 20
53.50997972365037
 10
14.09523357969152
 20
53.61637972365037
 10
14.00073357969151
 20
53.70667972365038
 10
13.93808357969152
 20
53.77492972365036
 10
13.91568357969152
 20
53.81342972365037
 10
13.93178357969152
 20
53.82917972365037
 10
13.95103357969152
 20
53.83617972365039
 10
13.97658357969151
 20
53.84317972365037
 10
14.00773357969152
 20
53.84877972365038
 10
14.04343357969151
 20
53.85367972365037
 10
14.08263357969152
 20
53.85752972365037
 10
14.12498357969152
 20
53.85997972365038
 10
14.16943357969152
 20
53.86067972365038
 10
14.26113357969152
 20
53.86312972365039
 10
14.30348357969152
 20
53.86592972365038
 10
14.34268357969152
 20
53.86977972365038
 10
14.37768357969152
 20
53.87432972365038
 10
14.40743357969152
 20
53.87922972365037
 10
14.43158357969152
 20
53.88482972365038
 10
14.44908357969152
 20
53.89042972365037
 10
14.45888357969151
 20
53.89637972365037
 10
14.44663357969152
 20
53.93277972365038
 10
14.42108357969152
 20
53.96742972365037
 10
14.38433357969151
 20
54.01187972365037
 10
14.33778357969152
 20
54.06472972365039
 10
14.28213357969152
 20
54.12422972365037
 10
14.21913357969151
 20
54.18967972365039
 10
14.14948357969151
 20
54.26002972365038
 10
14.07493357969151
 20
54.33352972365039
 10
13.91953357969152
 20
54.48297972365037
 10
13.84533357969152
 20
54.55822972365038
 10
13.77603357969151
 20
54.63102972365039
 10
13.71268357969151
 20
54.70032972365037
 10
13.65668357969151
 20
54.76437972365038
 10
13.60978357969152
 20
54.82107972365037
 10
13.57338357969152
 20
54.86902972365037
 10
13.54923357969152
 20
54.90647972365038
 10
13.44878357969152
 20
55.08357972365039
 10
13.76203357969152
 20
55.05417972365038
 10
13.88488357969152
 20
55.04717972365037
 10
13.93808357969152
 20
55.04752972365038
 10
13.98498357969152
 20
55.05032972365038
 10
14.02593357969152
 20
55.05522972365037
 10
14.06023357969152
 20
55.06222972365038
 10
14.08788357969152
 20
55.07132972365038
 10
14.10888357969152
 20
55.08252972365038
 10
14.12218357969152
 20
55.09547972365039
 10
14.11413357969152
 20
55.14307972365037
 10
14.09278357969152
 20
55.18087972365038
 10
14.06058357969152
 20
55.22742972365039
 10
14.01753357969152
 20
55.28132972365039
 10
13.96468357969152
 20
55.34257972365037
 10
13.90238357969152
 20
55.41012972365039
 10
13.83063357969152
 20
55.48362972365038
 10
13.75013357969151
 20
55.56202972365038
 10
13.60383357969152
 20
55.70832972365038
 10
13.53558357969152
 20
55.78007972365037
 10
13.47188357969151
 20
55.84832972365038
 10
13.41413357969152
 20
55.91237972365037
 10
13.36408357969152
 20
55.97012972365037
 10
13.32278357969151
 20
56.02087972365037
 10
13.29163357969152
 20
56.06252972365039
 10
13.27168357969152
 20
56.09367972365037
 10
13.24088357969152
 20
56.16262972365037
 10
13.23808357969152
 20
56.18502972365037
 10
13.24648357969152
 20
56.20147972365037
 10
13.26818357969152
 20
56.21232972365038
 10
13.30528357969152
 20
56.21862972365037
 10
13.36023357969151
 20
56.22212972365039
 10
13.43478357969152
 20
56.22352972365037
 10
13.53173357969152
 20
56.22352972365037
 10
13.68468357969152
 20
56.22702972365037
 10
13.73928357969151
 20
56.23157972365037
 10
13.78128357969151
 20
56.23927972365038
 10
13.81243357969152
 20
56.25012972365036
 10
13.83378357969152
 20
56.26482972365038
 10
13.84743357969152
 20
56.28337972365037
 10
13.85443357969152
 20
56.30717972365036
 10
13.85653357969152
 20
56.33587972365039
 10
13.83378357969152
 20
56.46887972365036
 10
13.80648357969152
 20
56.55322972365038
 10
13.76973357969152
 20
56.64737972365038
 10
13.72388357969152
 20
56.74957972365039
 10
13.66998357969151
 20
56.85877972365037
 10
13.60873357969151
 20
56.97287972365038
 10
13.54048357969152
 20
57.09047972365038
 10
13.46663357969151
 20
57.21017972365038
 10
13.26573357969152
 20
57.52307972365037
 10
14.87258357969151
 20
57.52307972365037
 10
14.68918357969152
 20
57.75337972365039
 10
14.59398357969152
 20
57.87587972365038
 10
14.56563357969151
 20
57.91682972365038
 10
14.54953357969152
 20
57.94762972365039
 10
14.54568357969152
 20
57.96967972365037
 10
14.55338357969152
 20
57.98577972365038
 10
14.57228357969152
 20
57.99802972365037
 10
14.60203357969152
 20
58.00852972365037
 10
14.64193357969152
 20
58.01937972365038
 10
14.84388357969151
 20
58.05297972365039
 10
14.96008357969152
 20
58.05577972365038
 10
15.09308357969152
 20
58.04842972365037
 10
15.24883357969151
 20
58.03022972365036
 10
15.43258357969151
 20
58.00047972365037
 10
15.65028357969152
 20
57.95882972365038
 10
15.90648357969152
 20
57.90422972365036
 10
16.20748357969152
 20
57.83632972365037
 10
16.30163357969152
 20
57.84157972365037
 10
16.32753357969152
 20
57.86642972365038
 10
16.33943357969152
 20
57.90387972365038
 10
16.33768357969151
 20
57.95252972365037
 10
16.32158357969151
 20
58.01062972365037
 10
16.29148357969152
 20
58.07677972365038
 10
16.24773357969152
 20
58.14922972365036
 10
16.18963357969152
 20
58.22587972365037
 10
16.03598357969151
 20
58.40332972365038
 10
16.26068357969152
 20
58.36797972365036
 10
16.36953357969151
 20
58.34767972365036
 10
16.44058357969152
 20
58.33227972365037
 10
16.52003357969152
 20
58.31372972365039
 10
16.60613357969152
 20
58.29272972365039
 10
16.69678357969152
 20
58.26927972365037
 10
16.78988357969152
 20
58.24442972365038
 10
16.88333357969152
 20
58.21782972365039
 10
16.97538357969152
 20
58.19052972365038
 10
17.33063357969152
 20
58.10442972365037
 10
17.44893357969152
 20
58.08937972365037
 10
17.52873357969152
 20
58.09427972365038
 10
17.57178357969152
 20
58.11947972365037
 10
17.57878357969152
 20
58.16567972365036
 10
17.55078357969152
 20
58.23392972365036
 10
17.48918357969152
 20
58.32457972365037
 10
17.39468357969152
 20
58.43867972365037
 10
17.32818357969152
 20
58.51952972365037
 10
17.30438357969152
 20
58.55277972365038
 10
17.28653357969151
 20
58.58077972365037
 10
17.27533357969152
 20
58.60387972365039
 10
17.27043357969152
 20
58.62207972365038
 10
17.27183357969152
 20
58.63502972365038
 10
17.27988357969152
 20
58.64272972365038
 10
17.29423357969151
 20
58.64552972365038
 10
17.46783357969151
 20
58.61332972365039
 10
17.59348357969152
 20
58.57692972365037
 10
17.73453357969152
 20
58.53107972365038
 10
17.88293357969152
 20
58.47787972365038
 10
18.03063357969151
 20
58.42047972365037
 10
18.17028357969151
 20
58.36167972365039
 10
18.29348357969152
 20
58.30357972365037
 10
18.39288357969152
 20
58.24967972365037
 10
18.48808357969152
 20
58.20242972365038
 10
18.53428357969152
 20
58.18247972365037
 10
18.57873357969152
 20
58.16532972365037
 10
18.62003357969152
 20
58.15167972365038
 10
18.65713357969152
 20
58.14152972365038
 10
18.68968357969151
 20
58.13557972365038
 10
18.71593357969152
 20
58.13417972365036
 10
18.73553357969151
 20
58.13732972365037
 10
18.79433357969151
 20
58.18772972365038
 10
18.80868357969152
 20
58.22517972365037
 10
18.81323357969151
 20
58.26962972365038
 10
18.80763357969151
 20
58.31967972365039
 10
18.79258357969152
 20
58.37462972365039
 10
18.76738357969151
 20
58.43307972365037
 10
18.73273357969151
 20
58.49432972365038
 10
18.68828357969152
 20
58.55697972365037
 10
18.56438357969152
 20
58.71622972365039
 10
18.70613357969151
 20
58.67492972365038
 10
18.76808357969152
 20
58.65287972365037
 10
18.80553357969152
 20
58.63747972365039
 10
18.84613357969152
 20
58.61962972365036
 10
18.88813357969152
 20
58.60002972365038
 10
18.93118357969152
 20
58.57867972365037
 10
18.97423357969152
 20
58.55627972365038
 10
19.01553357969151
 20
58.53317972365038
  0
ENDSEC
  0
SECTION
  2
OBJECTS
  0
DICTIONARY
  5
C
330
0
100
AcDbDictionary
281
    1
  3
ACAD_GROUP
350
D
  0
DICTIONARY
  5
D
330
C
100
AcDbDictionary
281
    1
  0
ENDSEC
  0
EOF
